<?xml version="1.0" encoding="UTF-8" standalone="no"?>
<!-- Created with Inkscape (http://www.inkscape.org/) -->

<svg
   xmlns:dc="http://purl.org/dc/elements/1.1/"
   xmlns:cc="http://creativecommons.org/ns#"
   xmlns:rdf="http://www.w3.org/1999/02/22-rdf-syntax-ns#"
   xmlns:svg="http://www.w3.org/2000/svg"
   xmlns="http://www.w3.org/2000/svg"
   xmlns:sodipodi="http://sodipodi.sourceforge.net/DTD/sodipodi-0.dtd"
   xmlns:inkscape="http://www.inkscape.org/namespaces/inkscape"
   width="120"
   height="120"
   viewBox="0 0 31.749999 31.750001"
   version="1.1"
   id="svg8"
   inkscape:version="0.92.5 (2060ec1f9f, 2020-04-08)"
   sodipodi:docname="cargando.svg">
  <defs
     id="defs2" />
  <sodipodi:namedview
     id="base"
     pagecolor="#ffffff"
     bordercolor="#666666"
     borderopacity="1.0"
     inkscape:pageopacity="0.0"
     inkscape:pageshadow="2"
     inkscape:zoom="3.959798"
     inkscape:cx="63.808353"
     inkscape:cy="39.504184"
     inkscape:document-units="mm"
     inkscape:current-layer="layer1"
     showgrid="false"
     units="px"
     inkscape:window-width="1920"
     inkscape:window-height="968"
     inkscape:window-x="0"
     inkscape:window-y="27"
     inkscape:window-maximized="1" />
  <metadata
     id="metadata5">
    <rdf:RDF>
      <cc:Work
         rdf:about="">
        <dc:format>image/svg+xml</dc:format>
        <dc:type
           rdf:resource="http://purl.org/dc/dcmitype/StillImage" />
        <dc:title></dc:title>
      </cc:Work>
    </rdf:RDF>
  </metadata>
  <g
     inkscape:label="Capa 1"
     inkscape:groupmode="layer"
     id="layer1"
     transform="translate(0,-265.24998)">
    <g
       id="g944"
       transform="matrix(1.4416244,0,0,1.4416244,-108.44131,216.87157)">
      <path
         inkscape:connector-curvature="0"
         id="path934"
         transform="scale(0.26458333)"
         d="m 327.82227,130.52344 v 10.77929 a 27.245423,27.245423 0 0 1 0.81835,0.041 27.245423,27.245423 0 0 1 2.69336,0.4082 27.245423,27.245423 0 0 1 2.63868,0.67383 27.245423,27.245423 0 0 1 2.55859,0.9336 27.245423,27.245423 0 0 1 2.45313,1.18359 27.245423,27.245423 0 0 1 2.32031,1.42383 27.245423,27.245423 0 0 1 2.16797,1.64843 27.245423,27.245423 0 0 1 0.31054,0.28907 l 7.59961,-7.59961 a 37.998357,37.998357 0 0 0 -23.56054,-9.78125 z"
         style="opacity:0.97000002;fill:#666666;fill-opacity:1;stroke:#000000;stroke-width:0.72873574;stroke-linecap:round;stroke-linejoin:miter;stroke-miterlimit:4;stroke-dasharray:none;stroke-dashoffset:0;stroke-opacity:1;paint-order:markers fill stroke" />
      <path
         inkscape:connector-curvature="0"
         id="path932"
         transform="scale(0.26458333)"
         d="m 324.02148,130.55078 a 37.998357,37.998357 0 0 0 -23.56054,9.75391 l 7.60937,7.60937 a 27.245423,27.245423 0 0 1 0.91602,-0.80273 27.245423,27.245423 0 0 1 2.21484,-1.58399 27.245423,27.245423 0 0 1 2.36133,-1.35546 27.245423,27.245423 0 0 1 2.48633,-1.11133 27.245423,27.245423 0 0 1 2.58398,-0.85938 27.245423,27.245423 0 0 1 2.65821,-0.5957 27.245423,27.245423 0 0 1 2.70312,-0.32813 27.245423,27.245423 0 0 1 0.0273,0 z"
         style="opacity:0.97000002;fill:#808080;fill-opacity:1;stroke:#000000;stroke-width:0.72873574;stroke-linecap:round;stroke-linejoin:miter;stroke-miterlimit:4;stroke-dasharray:none;stroke-dashoffset:0;stroke-opacity:1;paint-order:markers fill stroke" />
      <path
         inkscape:connector-curvature="0"
         id="path930"
         transform="scale(0.26458333)"
         d="m 354.07031,142.99219 -7.61133,7.61133 a 27.245423,27.245423 0 0 1 0.80469,0.91406 27.245423,27.245423 0 0 1 1.58399,2.21484 27.245423,27.245423 0 0 1 1.35546,2.36328 27.245423,27.245423 0 0 1 1.11133,2.48633 27.245423,27.245423 0 0 1 0.85938,2.58399 27.245423,27.245423 0 0 1 0.5957,2.65625 27.245423,27.245423 0 0 1 0.32813,2.70507 27.245423,27.245423 0 0 1 0,0.0254 h 10.72656 a 37.998357,37.998357 0 0 0 -9.75391,-23.56054 z"
         style="opacity:0.97000002;fill:#ffffff;fill-opacity:1;stroke:#000000;stroke-width:0.72873574;stroke-linecap:round;stroke-linejoin:miter;stroke-miterlimit:4;stroke-dasharray:none;stroke-dashoffset:0;stroke-opacity:1;paint-order:markers fill stroke" />
      <path
         inkscape:connector-curvature="0"
         id="path928"
         transform="scale(0.26458333)"
         d="m 297.77344,142.99414 a 37.998357,37.998357 0 0 0 -9.78125,23.55859 h 10.77929 a 27.245423,27.245423 0 0 1 0.041,-0.81835 27.245423,27.245423 0 0 1 0.40625,-2.69336 27.245423,27.245423 0 0 1 0.67383,-2.63868 27.245423,27.245423 0 0 1 0.93359,-2.55859 27.245423,27.245423 0 0 1 1.18555,-2.45117 27.245423,27.245423 0 0 1 1.42383,-2.32227 27.245423,27.245423 0 0 1 1.64648,-2.16797 27.245423,27.245423 0 0 1 0.28906,-0.31054 z"
         style="opacity:0.97000002;fill:#b3b3b3;fill-opacity:1;stroke:#000000;stroke-width:0.72873574;stroke-linecap:round;stroke-linejoin:miter;stroke-miterlimit:4;stroke-dasharray:none;stroke-dashoffset:0;stroke-opacity:1;paint-order:markers fill stroke" />
      <path
         inkscape:connector-curvature="0"
         id="path926"
         transform="scale(0.26458333)"
         d="m 288.01953,170.35547 a 37.998357,37.998357 0 0 0 9.75195,23.55859 l 7.61133,-7.61133 a 27.245423,27.245423 0 0 1 -0.80273,-0.91211 27.245423,27.245423 0 0 1 -1.58399,-2.21679 27.245423,27.245423 0 0 1 -1.35547,-2.36133 27.245423,27.245423 0 0 1 -1.11328,-2.48633 27.245423,27.245423 0 0 1 -0.85937,-2.58398 27.245423,27.245423 0 0 1 -0.5957,-2.65821 27.245423,27.245423 0 0 1 -0.32813,-2.70312 27.245423,27.245423 0 0 1 0,-0.0254 z"
         style="opacity:0.97000002;fill:#cccccc;fill-opacity:1;stroke:#000000;stroke-width:0.72873574;stroke-linecap:round;stroke-linejoin:miter;stroke-miterlimit:4;stroke-dasharray:none;stroke-dashoffset:0;stroke-opacity:1;paint-order:markers fill stroke" />
      <path
         inkscape:connector-curvature="0"
         id="path924"
         transform="scale(0.26458333)"
         d="m 353.07227,170.35547 a 27.245423,27.245423 0 0 1 -0.041,0.81836 27.245423,27.245423 0 0 1 -0.4082,2.69336 27.245423,27.245423 0 0 1 -0.67383,2.63867 27.245423,27.245423 0 0 1 -0.9336,2.55859 27.245423,27.245423 0 0 1 -1.18359,2.45117 27.245423,27.245423 0 0 1 -1.42383,2.32227 27.245423,27.245423 0 0 1 -1.64843,2.16797 27.245423,27.245423 0 0 1 -0.28907,0.30859 l 7.59961,7.59961 a 37.998357,37.998357 0 0 0 9.78125,-23.55859 z"
         style="opacity:0.97000002;fill:#f9f9f9;fill-opacity:1;stroke:#000000;stroke-width:0.72873574;stroke-linecap:round;stroke-linejoin:miter;stroke-miterlimit:4;stroke-dasharray:none;stroke-dashoffset:0;stroke-opacity:1;paint-order:markers fill stroke" />
      <path
         inkscape:connector-curvature="0"
         id="path922"
         transform="scale(0.26458333)"
         d="m 343.77344,188.99414 a 27.245423,27.245423 0 0 1 -0.91602,0.80274 27.245423,27.245423 0 0 1 -2.21484,1.58398 27.245423,27.245423 0 0 1 -2.36328,1.35352 27.245423,27.245423 0 0 1 -2.48438,1.11328 27.245423,27.245423 0 0 1 -2.58594,0.85937 27.245423,27.245423 0 0 1 -2.65625,0.5957 27.245423,27.245423 0 0 1 -2.70312,0.32813 27.245423,27.245423 0 0 1 -0.0273,0 v 10.72656 a 37.998357,37.998357 0 0 0 23.56054,-9.7539 z"
         style="opacity:0.97000002;fill:#ececec;fill-opacity:1;stroke:#000000;stroke-width:0.72873574;stroke-linecap:round;stroke-linejoin:miter;stroke-miterlimit:4;stroke-dasharray:none;stroke-dashoffset:0;stroke-opacity:1;paint-order:markers fill stroke" />
      <path
         inkscape:connector-curvature="0"
         id="path815"
         transform="scale(0.26458333)"
         d="m 308.06055,189.00391 -7.59961,7.59961 a 37.998357,37.998357 0 0 0 23.56054,9.78125 v -10.78125 a 27.245423,27.245423 0 0 1 -0.82031,-0.041 27.245423,27.245423 0 0 1 -2.69336,-0.40625 27.245423,27.245423 0 0 1 -2.63867,-0.67383 27.245423,27.245423 0 0 1 -2.55664,-0.93359 27.245423,27.245423 0 0 1 -2.45312,-1.18555 27.245423,27.245423 0 0 1 -2.32227,-1.42187 27.245423,27.245423 0 0 1 -2.16797,-1.64844 27.245423,27.245423 0 0 1 -0.30859,-0.28906 z"
         style="opacity:0.97000002;fill:#e6e6e6;fill-opacity:1;stroke:#000000;stroke-width:0.72873574;stroke-linecap:round;stroke-linejoin:miter;stroke-miterlimit:4;stroke-dasharray:none;stroke-dashoffset:0;stroke-opacity:1;paint-order:markers fill stroke" />
    </g>
    <circle
       style="opacity:0.97000002;fill:#ffffff;fill-opacity:1;stroke:#000000;stroke-width:0.91400003;stroke-linecap:round;stroke-linejoin:miter;stroke-miterlimit:4;stroke-dasharray:none;stroke-dashoffset:0;stroke-opacity:1;paint-order:markers fill stroke"
       id="path815-0"
       cx="96.005951"
       cy="40.73214"
       r="0" />
  </g>
</svg>
