<?xml version="1.0" encoding="UTF-8" standalone="no"?>
<svg
   xmlns:dc="http://purl.org/dc/elements/1.1/"
   xmlns:cc="http://creativecommons.org/ns#"
   xmlns:rdf="http://www.w3.org/1999/02/22-rdf-syntax-ns#"
   xmlns:svg="http://www.w3.org/2000/svg"
   xmlns="http://www.w3.org/2000/svg"
   id="svg8"
   version="1.1"
   viewBox="0 0 31.749999 31.750001"
   height="120"
   width="120">
  <defs
     id="defs2" />
  <metadata
     id="metadata5">
    <rdf:RDF>
      <cc:Work
         rdf:about="">
        <dc:format>image/svg+xml</dc:format>
        <dc:type
           rdf:resource="http://purl.org/dc/dcmitype/StillImage" />
        <dc:title></dc:title>
      </cc:Work>
    </rdf:RDF>
  </metadata>
  <g
     transform="translate(0,-265.24998)"
     id="layer1">
    <circle
       r="15.554277"
       cy="281.12497"
       cx="15.875"
       id="path957"
       style="fill:#212121;fill-opacity:1;stroke:none;stroke-width:1.37828708;stroke-linecap:round;stroke-linejoin:miter;stroke-miterlimit:4;stroke-dasharray:none;stroke-opacity:1;paint-order:markers fill stroke" />
    <path
       d="m 14.856457,271.82426 c -0.538681,0 -0.991154,0.45247 -0.991154,0.99115 v 6.29987 H 7.5654296 c -0.5386811,0 -0.9906373,0.45349 -0.9906373,0.99116 v 2.03708 c 0,0.53767 0.4519562,0.99116 0.9906373,0.99116 h 6.2998734 v 6.29987 c 0,0.53868 0.45349,0.99064 0.991154,0.99064 h 2.037085 c 0.537664,0 0.991154,-0.45196 0.991154,-0.99064 v -6.29987 h 6.299874 c 0.538681,0 0.990637,-0.45349 0.990637,-0.99116 v -2.03708 c 0,-0.53767 -0.451956,-0.99116 -0.990637,-0.99116 h -6.299874 v -6.29987 c 0,-0.53868 -0.452473,-0.99115 -0.991154,-0.99115 z M 15.875,267.49805 c -7.5173787,0 -13.6269531,6.10957 -13.6269531,13.62695 0,7.51738 6.1095744,13.62695 13.6269531,13.62695 7.517379,0 13.626953,-6.10957 13.626953,-13.62695 0,-7.51738 -6.109574,-13.62695 -13.626953,-13.62695 z m 0,1.44531 c 6.736292,0 12.181641,5.44535 12.181641,12.18164 0,6.73629 -5.445349,12.18164 -12.181641,12.18164 -6.7362919,0 -12.1816406,-5.44535 -12.1816406,-12.18164 0,-6.73629 5.4453487,-12.18164 12.1816406,-12.18164 z"
       style="color:#000000;font-style:normal;font-variant:normal;font-weight:normal;font-stretch:normal;font-size:medium;line-height:normal;font-family:sans-serif;font-variant-ligatures:normal;font-variant-position:normal;font-variant-caps:normal;font-variant-numeric:normal;font-variant-alternates:normal;font-feature-settings:normal;text-indent:0;text-align:start;text-decoration:none;text-decoration-line:none;text-decoration-style:solid;text-decoration-color:#000000;letter-spacing:normal;word-spacing:normal;text-transform:none;writing-mode:lr-tb;direction:ltr;text-orientation:mixed;dominant-baseline:auto;baseline-shift:baseline;text-anchor:start;white-space:normal;shape-padding:0;clip-rule:nonzero;display:inline;overflow:visible;visibility:visible;opacity:1;isolation:auto;mix-blend-mode:normal;color-interpolation:sRGB;color-interpolation-filters:linearRGB;solid-color:#000000;solid-opacity:1;vector-effect:none;fill:#75ca84;fill-opacity:1;fill-rule:nonzero;stroke:none;stroke-width:1.23011029;stroke-linecap:round;stroke-linejoin:miter;stroke-miterlimit:4;stroke-dasharray:none;stroke-dashoffset:0;stroke-opacity:1;paint-order:markers fill stroke;color-rendering:auto;image-rendering:auto;shape-rendering:auto;text-rendering:auto;enable-background:accumulate"
       id="rect940" />
  </g>
</svg>
