<?xml version="1.0" encoding="UTF-8" standalone="no"?>
<!-- Created with Inkscape (http://www.inkscape.org/) -->

<svg
   xmlns:dc="http://purl.org/dc/elements/1.1/"
   xmlns:cc="http://creativecommons.org/ns#"
   xmlns:rdf="http://www.w3.org/1999/02/22-rdf-syntax-ns#"
   xmlns:svg="http://www.w3.org/2000/svg"
   xmlns="http://www.w3.org/2000/svg"
   xmlns:sodipodi="http://sodipodi.sourceforge.net/DTD/sodipodi-0.dtd"
   xmlns:inkscape="http://www.inkscape.org/namespaces/inkscape"
   width="120"
   height="120"
   viewBox="0 0 31.749999 31.750001"
   version="1.1"
   id="svg8"
   inkscape:version="0.92.5 (2060ec1f9f, 2020-04-08)"
   sodipodi:docname="iconoAdvertencia.svg">
  <defs
     id="defs2" />
  <sodipodi:namedview
     id="base"
     pagecolor="#ffffff"
     bordercolor="#666666"
     borderopacity="1.0"
     inkscape:pageopacity="0.0"
     inkscape:pageshadow="2"
     inkscape:zoom="1.4"
     inkscape:cx="-9.6908509"
     inkscape:cy="149.84212"
     inkscape:document-units="mm"
     inkscape:current-layer="layer1"
     showgrid="false"
     showguides="true"
     inkscape:guide-bbox="true"
     inkscape:window-width="1920"
     inkscape:window-height="968"
     inkscape:window-x="0"
     inkscape:window-y="27"
     inkscape:window-maximized="1"
     units="px" />
  <metadata
     id="metadata5">
    <rdf:RDF>
      <cc:Work
         rdf:about="">
        <dc:format>image/svg+xml</dc:format>
        <dc:type
           rdf:resource="http://purl.org/dc/dcmitype/StillImage" />
        <dc:title></dc:title>
      </cc:Work>
    </rdf:RDF>
  </metadata>
  <g
     inkscape:label="Capa 1"
     inkscape:groupmode="layer"
     id="layer1"
     transform="translate(0,-265.24998)">
    <path
       style="fill:#212121;fill-opacity:1;stroke:none;stroke-width:0.24933359;stroke-miterlimit:4;stroke-dasharray:none"
       d="m 15.875888,266.3588 c -2.284207,0 -3.224456,1.60538 -4.352195,3.70911 l -10.66508987,19.8951 c -1.12772811,2.10371 0.65222977,5.7924 2.93643667,5.7924 H 27.874282 c 2.284204,0 4.146627,-3.68866 3.018888,-5.7924 l -10.665088,-19.8951 c -1.127739,-2.10373 -2.06799,-3.70911 -4.352194,-3.70911 z"
       id="path825-9"
       inkscape:connector-curvature="0"
       sodipodi:nodetypes="ssssssss" />
    <path
       id="rect821-7"
       style="fill:#ffe680;fill-opacity:1;stroke:none;stroke-width:0.26944724;stroke-miterlimit:4;stroke-dasharray:none"
       d="m 18.204296,272.12125 9.700269,17.78835 c 0.826821,1.6874 0.187927,2.8897 -1.688339,2.88755 l -20.6806761,-0.0236 c -2.3426545,-0.003 -1.6409518,-2.48669 -1.1591726,-3.3931 l 9.1221757,-17.16232 c 1.707296,-3.40056 3.250646,-2.68848 4.705743,-0.0969 z m -2.328408,-3.35846 c -2.005273,0 -2.855405,1.88459 -3.820729,3.66418 l -9.36273,17.26038 c -0.9653249,1.77959 -0.1150852,4.31709 1.8901852,4.31709 H 27.169162 c 2.00527,0 2.855508,-2.53748 1.890182,-4.31709 l -9.362728,-17.26038 c -0.965324,-1.77959 -1.815458,-3.66418 -3.820728,-3.66418 z"
       inkscape:connector-curvature="0"
       sodipodi:nodetypes="ccsssccscssccss" />
    <rect
       style="fill:#ffe680;fill-opacity:1;stroke:none;stroke-width:0.24719796;stroke-miterlimit:4;stroke-dasharray:none"
       id="rect842"
       width="3.1665678"
       height="11.836992"
       x="14.292604"
       y="273.62238"
       ry="1.3247175" />
    <circle
       style="fill:#ffe680;fill-opacity:1;stroke:none;stroke-width:0.26919654;stroke-miterlimit:4;stroke-dasharray:none"
       id="path844"
       cx="15.875888"
       cy="289.42593"
       r="2.1876225" />
  </g>
</svg>
