<?xml version="1.0" encoding="UTF-8" standalone="no"?>
<svg
   xmlns:dc="http://purl.org/dc/elements/1.1/"
   xmlns:cc="http://creativecommons.org/ns#"
   xmlns:rdf="http://www.w3.org/1999/02/22-rdf-syntax-ns#"
   xmlns:svg="http://www.w3.org/2000/svg"
   xmlns="http://www.w3.org/2000/svg"
   id="svg8"
   version="1.1"
   viewBox="0 0 31.749999 31.750001"
   height="120"
   width="120">
  <defs
     id="defs2" />
  <metadata
     id="metadata5">
    <rdf:RDF>
      <cc:Work
         rdf:about="">
        <dc:format>image/svg+xml</dc:format>
        <dc:type
           rdf:resource="http://purl.org/dc/dcmitype/StillImage" />
        <dc:title></dc:title>
      </cc:Work>
    </rdf:RDF>
  </metadata>
  <g
     transform="translate(0,-265.24998)"
     id="layer1">
    <path
       id="path825-9"
       d="m 15.875888,266.3588 c -2.284207,0 -3.224456,1.60538 -4.352195,3.70911 l -10.66508987,19.8951 c -1.12772811,2.10371 0.65222977,5.7924 2.93643667,5.7924 H 27.874282 c 2.284204,0 4.146627,-3.68866 3.018888,-5.7924 l -10.665088,-19.8951 c -1.127739,-2.10373 -2.06799,-3.70911 -4.352194,-3.70911 z"
       style="fill:#212121;fill-opacity:1;stroke:none;stroke-width:0.24933359;stroke-miterlimit:4;stroke-dasharray:none" />
    <path
       d="m 18.204296,272.12125 9.700269,17.78835 c 0.826821,1.6874 0.187927,2.8897 -1.688339,2.88755 l -20.6806761,-0.0236 c -2.3426545,-0.003 -1.6409518,-2.48669 -1.1591726,-3.3931 l 9.1221757,-17.16232 c 1.707296,-3.40056 3.250646,-2.68848 4.705743,-0.0969 z m -2.328408,-3.35846 c -2.005273,0 -2.855405,1.88459 -3.820729,3.66418 l -9.36273,17.26038 c -0.9653249,1.77959 -0.1150852,4.31709 1.8901852,4.31709 H 27.169162 c 2.00527,0 2.855508,-2.53748 1.890182,-4.31709 l -9.362728,-17.26038 c -0.965324,-1.77959 -1.815458,-3.66418 -3.820728,-3.66418 z"
       style="fill:#ffe680;fill-opacity:1;stroke:none;stroke-width:0.26944724;stroke-miterlimit:4;stroke-dasharray:none"
       id="rect821-7" />
    <rect
       ry="1.3247175"
       y="273.62238"
       x="14.292604"
       height="11.836992"
       width="3.1665678"
       id="rect842"
       style="fill:#ffe680;fill-opacity:1;stroke:none;stroke-width:0.24719796;stroke-miterlimit:4;stroke-dasharray:none" />
    <circle
       r="2.1876225"
       cy="289.42593"
       cx="15.875888"
       id="path844"
       style="fill:#ffe680;fill-opacity:1;stroke:none;stroke-width:0.26919654;stroke-miterlimit:4;stroke-dasharray:none" />
  </g>
</svg>
