<?xml version="1.0" encoding="UTF-8" standalone="no"?>
<svg
   xmlns:dc="http://purl.org/dc/elements/1.1/"
   xmlns:cc="http://creativecommons.org/ns#"
   xmlns:rdf="http://www.w3.org/1999/02/22-rdf-syntax-ns#"
   xmlns:svg="http://www.w3.org/2000/svg"
   xmlns="http://www.w3.org/2000/svg"
   id="svg905"
   version="1.1"
   viewBox="0 0 105.83333 105.83334"
   height="400"
   width="400">
  <defs
     id="defs899" />
  <metadata
     id="metadata902">
    <rdf:RDF>
      <cc:Work
         rdf:about="">
        <dc:format>image/svg+xml</dc:format>
        <dc:type
           rdf:resource="http://purl.org/dc/dcmitype/StillImage" />
        <dc:title></dc:title>
      </cc:Work>
    </rdf:RDF>
  </metadata>
  <g
     transform="translate(0,-191.16665)"
     id="layer1">
    <path
       id="path2"
       style="fill:#e7e7e7;fill-rule:evenodd;stroke-width:0.26458332"
       d="m 1.6297,242.47301 v 3.22069 q 0,16.28225 17.78585,16.28225 h 67.00224 q 17.78582,0 17.78582,-16.28225 v -3.22069 q 0,-16.28225 -17.78582,-16.28225 H 19.41555 q -17.78585,0 -17.78585,16.28225 z" />
    <g
       id="Layer1000"
       transform="matrix(0.26458333,0,0,0.26458333,-48.67375,217.106)">
      <path
         id="path10"
         style="fill:#dd5c4f;fill-rule:evenodd"
         d="m 245.5384,151.9226 v -3e-4 l 15.81,-3.0847 -2.5787,-2.0202 22.0377,-15.7941 c 11.9956,-10.4148 20.6325,-27.5358 2.5988,-39.138 l 0.007,0.0029 C 265.9938,79.5226 275.1035,72.2013 282.9864,63.9763 L 308.8826,44.799 v 3e-4 l -15.81,3.0847 2.5787,2.0202 -22.0377,15.7941 c -11.9956,10.4148 -20.6325,27.5357 -2.5988,39.138 l -0.007,-0.003 c 17.4192,12.3656 8.3095,19.6869 0.4266,27.9119 z" />
      <path
         id="path12"
         style="fill:#dd5c4f;fill-rule:evenodd"
         d="m 494.3084,133.7223 c 12.0907,-10.3042 21.6829,-26.2804 3.7565,-38.0478 l 0.007,0.0029 c -17.3049,-12.525 -8.1283,-19.7623 -0.1702,-27.9146 32.5315,-25.196 -9.7333,1.0544 -9.3882,1.6359 -12.0908,10.3042 -20.8845,27.3451 -2.9581,39.1124 l -0.007,-0.003 c 17.3049,12.5251 8.1284,19.7624 0.1703,27.9147 -2.3128,2.6448 6.5753,-0.9922 8.5898,-2.7006 z" />
      <path
         id="path14"
         style="fill:#dd5c4f;fill-rule:evenodd"
         d="m 392.4456,115.9767 c 0.224,-0.1018 0.6126,0.2679 0.567,0.5071 -0.2506,3.0699 -0.6225,4.6001 -1.8958,7.1411 -6.984,4.8719 -25.9118,9.5972 -33.6858,3.1552 -3.6613,-3.0339 -5.4652,-6.2133 -5.4652,-9.8626 0,-3.9206 1.8802,-9.2557 7.6597,-12.746 4.6072,-2.7822 11.0288,-4.8078 16.259,-5.4924 l 5.1236,-0.6707 c 2.9078,-0.3807 4.1919,-1.523 4.1919,-1.8547 0,-0.2262 -0.6333,-0.5431 -1.9001,-0.9198 -3.5132,-1.0556 -5.9108,-1.9905 -7.2076,-2.7899 -2.6238,-1.5831 -3.9356,-3.4682 -3.9356,-5.6545 0,-3.1927 2.5925,-6.8083 4.5705,-9.1831 2.9339,-3.5235 6.545,-5.6668 8.8648,-7.208 2.1283,-1.4139 4.5539,-2.6087 7.2984,-3.5736 2.7292,-0.9802 5.0516,-1.4627 6.9364,-1.4627 0.7086,0 1.0556,0.2262 1.0556,0.6633 0,0.5579 -1.6943,1.7257 -3.7205,2.888 -8.0509,4.6182 -11.8159,5.8543 -16.1521,12.1872 -0.9329,1.3626 -0.3217,2.2907 1.0236,3.5476 1.3723,1.2815 3.212,2.3372 5.5038,3.1666 l 2.5183,0.8747 c 2.9403,1.0554 4.4183,1.9148 4.4183,2.5634 0,0.362 -0.8444,1.2365 -2.5183,2.6238 -1.6738,1.4023 -3.634,2.8499 -5.8807,4.3579 -1.5534,1.0554 -2.8653,1.7794 -3.9056,2.1564 -1.0406,0.392 -3.0158,0.8444 -5.8961,1.3719 -4.693,0.8391 -14.9351,4.1409 -14.9351,10.2087 0,11.5974 26.4106,6.7213 31.1076,4.0051 z" />
      <path
         id="path16"
         style="fill:#dd5c4f;fill-rule:evenodd"
         d="m 446.1593,115.9767 c 0.224,-0.1018 0.6126,0.2679 0.567,0.5071 -0.2506,3.0699 -0.6225,4.6001 -1.8958,7.1411 -6.984,4.8719 -25.9118,9.5972 -33.6858,3.1552 -3.6613,-3.0339 -5.4652,-6.2133 -5.4652,-9.8626 0,-3.9206 1.8802,-9.2557 7.6597,-12.746 4.6072,-2.7822 11.0288,-4.8078 16.259,-5.4924 l 5.1236,-0.6707 c 2.9078,-0.3807 4.1919,-1.523 4.1919,-1.8547 0,-0.2262 -0.6333,-0.5431 -1.9001,-0.9198 -3.5132,-1.0556 -5.9108,-1.9905 -7.2076,-2.7899 -2.6238,-1.5831 -3.9356,-3.4682 -3.9356,-5.6545 0,-3.1927 2.5925,-6.8083 4.5705,-9.1831 2.9339,-3.5235 6.545,-5.6668 8.8648,-7.208 2.1283,-1.4139 4.5539,-2.6087 7.2984,-3.5736 2.7292,-0.9802 5.0516,-1.4627 6.9364,-1.4627 0.7086,0 1.0556,0.2262 1.0556,0.6633 0,0.5579 -1.6943,1.7257 -3.7205,2.888 -8.0509,4.6182 -11.8159,5.8543 -16.1521,12.1872 -0.9329,1.3626 -0.3217,2.2907 1.0236,3.5476 1.3723,1.2815 3.212,2.3372 5.5038,3.1666 l 2.5183,0.8747 c 2.9403,1.0554 4.4183,1.9148 4.4183,2.5634 0,0.362 -0.8444,1.2365 -2.5183,2.6238 -1.6738,1.4023 -3.634,2.8499 -5.8807,4.3579 -1.5534,1.0554 -2.8653,1.7794 -3.9056,2.1564 -1.0406,0.392 -3.0158,0.8444 -5.8961,1.3719 -4.693,0.8391 -14.9351,4.1409 -14.9351,10.2087 0,11.5974 26.4106,6.7213 31.1076,4.0051 z" />
      <path
         id="path18"
         style="fill:#dd5c4f;fill-rule:evenodd"
         d="m 304.304,110.1484 c 2.4262,-12.6938 20.8525,-40.7515 25.0645,-45.1364 2.7899,-3.0299 2.367,-3.037 4.059,-3.2561 1.934,-0.2506 3.8035,0.9932 2.1143,3.2071 -9.9306,13.0147 -18.0878,31.9983 -18.0878,48.7165 0,9.3189 20.6818,6.9619 25.5291,4.6105 0.8538,-0.4141 1.4028,-0.6137 1.5956,-0.6137 2.6662,0 -0.1021,6.7423 -1.2799,7.6097 -8.2442,5.447 -28.9094,11.0661 -36.4699,0.5323 -2.0509,-2.8573 -3.0858,-4.4133 -3.0858,-9.9714 0,-0.8592 0.0351,-1.736 0.1227,-2.6652 0.0876,-0.9292 0.2455,-1.9287 0.4382,-3.0333 z" />
      <path
         id="path20"
         style="fill:#dd5c4f;fill-rule:evenodd"
         d="m 457.1796,107.6834 c 4.3325,-12.7934 21.8174,-40.1165 25.8063,-46.0361 2.2879,-2.4775 0.8711,-2.7215 4.1908,-2.7215 1.9502,0 3.5574,0.8895 1.8025,3.0512 -9.0924,11.1985 -16.8692,29.126 -18.1859,45.6984 -7.7332,2.3947 -12.714,2.3976 -13.6137,0.008 z" />
    </g>
    <path
       id="path40"
       style="fill:#dd5c4f;fill-rule:evenodd;stroke-width:0.765;stroke:#dd5c4f;stroke-opacity:1;stroke-miterlimit:4;stroke-dasharray:none"
       d="m 19.1906,225.93036 h 67.45208 c 9.84795,0 17.90526,7.52504 17.90526,16.54043 v 3.24231 c 0,9.0153 -8.05738,16.52317 -17.90526,16.52317 H 19.1906 c -9.84781,0 -17.9052,-7.50779 -17.9052,-16.52317 v -3.24231 c 0,-9.01547 8.05733,-16.54043 17.9052,-16.54043 z m 0.22011,0.57854 h 67.01986 c 9.61297,0 17.47808,7.20037 17.47808,16.00051 v 3.165 c 0,8.80012 -7.86524,16.0005 -17.47808,16.0005 H 19.41071 c -9.61282,0 -17.47806,-7.20024 -17.47806,-16.0005 v -3.165 c 0,-8.80028 7.86509,-16.00051 17.47806,-16.00051 z" />
    <path
       id="path52"
       style="fill:#ffffff;fill-rule:evenodd;stroke-width:0.26458332"
       d="m 21.83353,231.86554 c 0.24135,0 0.4809,0.008 0.71871,0.0222 l -4.62764,3.31658 c -3.17386,2.75559 -5.45902,7.28552 -0.6876,10.35527 l -0.002,-8e-4 c 4.60883,3.27173 2.19855,5.20883 0.11287,7.38503 l -1.62224,1.20136 c -3.51161,-2.09251 -5.87299,-5.92852 -5.87299,-10.29893 0,-6.59879 5.38192,-11.98073 11.98073,-11.98073 z" />
    <path
       id="path60"
       style="fill:#ffffff;fill-rule:evenodd;stroke-width:0.26458332"
       d="m 84.76213,255.80457 4.62735,-3.31634 c 3.17384,-2.75558 5.45902,-7.28552 0.6876,-10.35526 l 0.002,7.6e-4 c -4.60893,-3.27173 -2.19865,-5.20882 -0.11297,-7.38502 l 1.62285,-1.20182 c 3.51142,2.09288 5.87235,5.929 5.87235,10.29938 0,6.59874 -5.38195,11.98066 -11.98065,11.98066 -0.24128,0 -0.48062,-0.008 -0.71843,-0.0224 z" />
  </g>
</svg>
