<?xml version="1.0" encoding="UTF-8" standalone="no"?>
<svg
   xmlns:dc="http://purl.org/dc/elements/1.1/"
   xmlns:cc="http://creativecommons.org/ns#"
   xmlns:rdf="http://www.w3.org/1999/02/22-rdf-syntax-ns#"
   xmlns:svg="http://www.w3.org/2000/svg"
   xmlns="http://www.w3.org/2000/svg"
   id="svg2768"
   version="1.1"
   viewBox="0 0 158.75 52.916667"
   height="200"
   width="600">
  <defs
     id="defs2762" />
  <metadata
     id="metadata2765">
    <rdf:RDF>
      <cc:Work
         rdf:about="">
        <dc:format>image/svg+xml</dc:format>
        <dc:type
           rdf:resource="http://purl.org/dc/dcmitype/StillImage" />
        <dc:title></dc:title>
      </cc:Work>
    </rdf:RDF>
  </metadata>
  <g
     transform="translate(0,-244.08331)"
     id="layer1">
    <path
       d="m 156.83199,274.78607 h -30.89651 v 9.09465 h 24.42991 c 5.54561,-1.07981 6.04553,-4.02519 6.4666,-9.09465 z m -45.96274,-27.58885 c 6.23813,0 11.31663,4.46024 11.29516,9.96215 l -0.0567,14.53565 c 0.25575,3.58344 -1.6211,6.62429 -4.40206,7.09057 0.83481,1.06321 4.54365,0.14708 4.45877,8.90574 v 6.23848 c -4.90123,0.0628 -7.83029,-2.14895 -9.09548,-4.65278 l -0.0709,-3.63776 c -0.21551,-1.64458 -1.59552,-1.64988 -2.4589,-1.75847 v -9.09481 c 1.29681,-0.38763 2.46938,-0.16452 2.48012,-3.26757 l 0.0497,-14.35905 c 0.0299,-1.04672 -0.96703,-1.89588 -2.15428,-1.89588 -1.18723,0 -2.12048,0.84874 -2.12048,1.89588 v 13.78747 h -9.095468 v -13.78747 c 0,-5.50196 4.932428,-9.96215 11.170538,-9.96215 z m -49.683329,27.58885 h 47.421919 v 9.09465 H 61.185921 Z m 23.95252,-3.85261 c -6.238117,0 -11.295114,-4.4602 -11.295114,-9.96216 v -13.8579 h 9.095421 v 13.8579 c 0,1.04714 0.966969,1.89601 2.154215,1.89601 1.187247,0 2.120629,-0.84887 2.120629,-1.89601 v -13.8579 h 9.095409 v 13.8579 c 0,5.50196 -4.932443,9.96216 -11.17056,9.96216 z M 1.9180093,274.78607 H 43.884941 v 9.09465 H 8.3846063 c -5.5456175,-1.07981 -6.0455499,-4.02519 -6.466597,-9.09465 z M 139.57607,247.1134 a 13.878856,11.93268 0 0 0 -13.87892,11.93263 13.878856,11.93268 0 0 0 13.87892,11.93265 13.878856,11.93268 0 0 0 13.87891,-11.93265 13.878856,11.93268 0 0 0 -13.87891,-11.93263 z m 0.13731,6.79334 a 6.1149416,5.2574682 0 0 1 6.11491,5.25738 6.1149416,5.2574682 0 0 1 -6.11491,5.25754 6.1149416,5.2574682 0 0 1 -6.11489,-5.25754 6.1149416,5.2574682 0 0 1 6.11489,-5.25738 z m -104.92386,3.18128 c -1.1e-5,-1.04713 -0.933382,-1.896 -2.120628,-1.896 -1.187247,0 -2.154216,0.84887 -2.154227,1.896 v 13.85882 h -9.095409 v -13.85882 c -1.2e-5,-1.04713 -0.933394,-1.896 -2.120636,-1.896 -1.187245,0 -2.154215,0.84887 -2.154218,1.896 v 13.85882 H 8.0489817 v -13.85882 m 0,0 c 1.1e-6,-5.50196 5.0569963,-9.96217 11.2951133,-9.96217 2.512588,0 4.813358,0.72359 6.664155,1.94662 1.874519,-1.22364 4.194596,-1.94662 6.70612,-1.94662 6.238116,0 11.170571,4.46021 11.170571,9.96217 v 13.85882 H 34.78952 v -13.85882 m 24.355318,-10.00425 c -6.238117,0 -11.295161,4.46019 -11.295161,9.96215 v 36.8839 c 4.22208,0.4725 7.006551,-1.49895 9.095479,-4.65279 v -5.39623 h 2.529799 v -9.09481 h -2.529799 v -17.74007 c 0,-1.04714 0.967028,-1.89587 2.154262,-1.89587 1.187259,0 2.1205,0.84873 2.1205,1.89587 v 13.90092 h 9.095479 v -13.90092 c 0,-5.50196 -4.932443,-9.96215 -11.170559,-9.96215 z"
       style="fill:#e6e6e6;fill-opacity:1;stroke:#000000;stroke-width:0.39135557;stroke-linecap:round;stroke-linejoin:miter;stroke-miterlimit:4;stroke-dasharray:none;stroke-opacity:1;paint-order:markers fill stroke"
       id="rect1184-1" />
  </g>
</svg>
