<?xml version="1.0" encoding="UTF-8" standalone="no"?>
<svg
   xmlns:dc="http://purl.org/dc/elements/1.1/"
   xmlns:cc="http://creativecommons.org/ns#"
   xmlns:rdf="http://www.w3.org/1999/02/22-rdf-syntax-ns#"
   xmlns:svg="http://www.w3.org/2000/svg"
   xmlns="http://www.w3.org/2000/svg"
   id="svg843"
   version="1.1"
   viewBox="0 0 16.933333 16.933334"
   height="64"
   width="64">
  <defs
     id="defs837" />
  <metadata
     id="metadata840">
    <rdf:RDF>
      <cc:Work
         rdf:about="">
        <dc:format>image/svg+xml</dc:format>
        <dc:type
           rdf:resource="http://purl.org/dc/dcmitype/StillImage" />
        <dc:title></dc:title>
      </cc:Work>
    </rdf:RDF>
  </metadata>
  <g
     transform="translate(0,-280.06665)"
     id="layer1">
    <path
       id="path826"
       d="m 5.8853684,296.77255 c -0.1498072,-0.0289 -0.6319262,-0.22633 -1.0147699,-0.41565 -0.6292975,-0.31119 -1.1801051,-0.67696 -1.7461669,-1.15955 -0.2432583,-0.20739 -0.7229539,-0.69414 -0.9345406,-0.94827 -1.71417284,-2.05887 -2.36278988,-4.75899 -1.78018375,-7.41072 0.20257678,-0.922 0.60813105,-1.89659 1.12744285,-2.70931 1.6364647,-2.56105 4.4613896,-4.01658 7.4334245,-3.83004 1.4485174,0.0909 2.8153484,0.55487 4.0244474,1.36603 0.500256,0.33562 0.871139,0.64564 1.314404,1.09872 0.66137,0.67601 1.144124,1.36159 1.563955,2.22101 1.244015,2.54666 1.13057,5.6287 -0.297239,8.07513 -0.373111,0.63929 -0.747013,1.12878 -1.27469,1.66876 -0.550642,0.56348 -1.081543,0.98172 -1.729906,1.3628 -0.520915,0.30618 -1.312576,0.65778 -1.548291,0.68765 -0.197856,0.0251 -0.360328,-0.0549 -0.439229,-0.21623 l -0.04329,-0.0885 -0.0039,-1.40396 c -0.0039,-1.26413 -0.0068,-1.41788 -0.03137,-1.54381 -0.0814,-0.41619 -0.222551,-0.73454 -0.420662,-0.94889 -0.092738,-0.10036 -0.08922,-0.10707 0.0645,-0.12319 0.187147,-0.0196 0.551512,-0.0888 0.809076,-0.15355 0.625018,-0.15718 1.163356,-0.41358 1.564219,-0.74498 0.15055,-0.12446 0.389753,-0.37842 0.500403,-0.53127 0.483995,-0.66861 0.731886,-1.57665 0.731886,-2.68095 0,-0.44098 -0.05121,-0.78526 -0.171678,-1.15427 -0.134728,-0.4127 -0.28906,-0.68493 -0.643173,-1.1345 -0.02599,-0.033 -0.02521,-0.0404 0.01808,-0.17809 0.138247,-0.43915 0.15139,-1.05545 0.03332,-1.56406 -0.04104,-0.17698 -0.135413,-0.47273 -0.163166,-0.51151 -0.02023,-0.0283 -0.04075,-0.0313 -0.207003,-0.0304 -0.208518,10e-4 -0.363348,0.0295 -0.617649,0.11314 -0.398489,0.13101 -0.841393,0.35737 -1.29311,0.6609 -0.119651,0.0804 -0.153814,0.0962 -0.192326,0.0892 -0.0258,-0.005 -0.152123,-0.0338 -0.280813,-0.0647 -0.5722382,-0.1374 -1.1241988,-0.20056 -1.7548351,-0.20079 -0.6763407,-2.4e-4 -1.235435,0.0713 -1.9467599,0.24925 -0.09907,0.0248 -0.1184092,0.0256 -0.148185,0.006 -0.7647493,-0.50152 -1.3407397,-0.76448 -1.8380838,-0.83916 -0.1852019,-0.0278 -0.3564589,-0.0242 -0.3947951,0.008 -0.028339,0.0241 -0.1209793,0.30908 -0.1713645,0.52739 -0.061271,0.26533 -0.078666,0.43361 -0.077689,0.75022 9.772e-4,0.3201 0.024723,0.5045 0.096158,0.75022 0.060978,0.20941 0.060978,0.20683 -0.00782,0.28762 -0.4041959,0.47727 -0.6662558,1.08397 -0.7463386,1.7278 -0.032834,0.26389 -0.024235,0.97974 0.015538,1.28876 0.2533529,1.97066 1.3170227,2.99829 3.4265574,3.31045 0.1366929,0.0202 0.2528643,0.0412 0.2581608,0.0466 0.00489,0.005 -0.02531,0.0489 -0.067916,0.0967 -0.1970262,0.2206 -0.338224,0.52824 -0.4015867,0.87494 -0.016417,0.0897 -0.034105,0.14109 -0.054431,0.15849 -0.045831,0.039 -0.3951664,0.15297 -0.5624755,0.18346 -0.1872443,0.0341 -0.5111912,0.0349 -0.6706532,0.002 -0.4596138,-0.0961 -0.8012581,-0.35661 -1.1346841,-0.86517 -0.3938765,-0.60075 -0.8067598,-0.8859 -1.282742,-0.8859 -0.2399161,0 -0.3747719,0.056 -0.3746448,0.15563 1.172e-4,0.0994 0.1058422,0.21387 0.3509083,0.38002 0.2348346,0.15922 0.3456607,0.28244 0.5719447,0.63594 0.1128098,0.17622 0.1759574,0.29848 0.3860685,0.74744 0.097858,0.20909 0.2279844,0.379 0.3890295,0.50793 0.474917,0.38023 1.1758542,0.49718 2.1052155,0.35126 0.1002036,-0.0157 0.1864429,-0.0262 0.1916417,-0.0232 0.00489,0.003 0.014365,0.3666 0.020326,0.80803 0.00977,0.72091 0.00782,0.81151 -0.014854,0.89037 -0.058242,0.19827 -0.2826596,0.31737 -0.5140838,0.2728 z"
       style="fill:#ffffff;stroke:#000000;stroke-width:0.0157793" />
  </g>
</svg>
