<?xml version="1.0" encoding="UTF-8" standalone="no"?>
<svg
   xmlns:dc="http://purl.org/dc/elements/1.1/"
   xmlns:cc="http://creativecommons.org/ns#"
   xmlns:rdf="http://www.w3.org/1999/02/22-rdf-syntax-ns#"
   xmlns:svg="http://www.w3.org/2000/svg"
   xmlns="http://www.w3.org/2000/svg"
   width="80"
   height="80"
   viewBox="0 0 21.166667 21.166667"
   version="1.1"
   id="svg8">
  <defs
     id="defs2" />
  <metadata
     id="metadata5">
    <rdf:RDF>
      <cc:Work
         rdf:about="">
        <dc:format>image/svg+xml</dc:format>
        <dc:type
           rdf:resource="http://purl.org/dc/dcmitype/StillImage" />
        <dc:title></dc:title>
      </cc:Work>
    </rdf:RDF>
  </metadata>
  <g
     style="stroke:#000000"
     id="layer1"
     transform="translate(0,-275.83331)">
    <path
       id="path865"
       d=""
       style="fill:#000000;stroke-width:0.26458335" />
    <path
       d="m -26.866671,295.76747 c 2.835396,-0.24409 5.349196,-1.7339 6.921548,-4.10205 0.859903,-1.29512 1.364327,-2.76487 1.497701,-4.36388 0.0355,-0.42563 0.01488,-1.41488 -0.03787,-1.81711 -0.198045,-1.51004 -0.686277,-2.8184 -1.506847,-4.03805 -1.529113,-2.27278 -3.96925,-3.73226 -6.710492,-4.01369 -0.512102,-0.0526 -1.662957,-0.0395 -2.107354,0.0239 -1.582162,0.22576 -2.909131,0.74776 -4.160835,1.63678 -0.440059,0.31254 -0.757036,0.58184 -1.164872,0.98968 -1.454582,1.45457 -2.3263,3.22218 -2.626449,5.32571 -0.06341,0.44438 -0.07645,1.59525 -0.02388,2.10734 0.231766,2.25759 1.243232,4.28849 2.90324,5.82936 1.547009,1.436 3.450243,2.25846 5.628021,2.4321 0.249081,0.0198 1.113283,0.0137 1.388079,-0.0105 z m -1.272735,1.10968 c -1.129941,-0.0679 -2.100513,-0.26902 -3.09258,-0.6405 -2.127983,-0.79681 -3.94276,-2.28588 -5.149433,-4.22525 -1.051914,-1.69063 -1.576304,-3.61756 -1.533696,-5.63573 0.03416,-1.61787 0.396545,-3.06134 1.122957,-4.47296 1.008093,-1.95901 2.565257,-3.50666 4.527836,-4.5002 1.545726,-0.78252 3.12662,-1.14016 4.859667,-1.09942 1.563082,0.0368 2.938992,0.37083 4.318271,1.04853 1.88612,0.92671 3.433553,2.40186 4.470293,4.26146 1.637602,2.93736 1.714587,6.53663 0.20466,9.5683 -0.330943,0.66447 -0.789927,1.36895 -1.299941,1.99528 -0.288476,0.35427 -1.025075,1.0836 -1.389895,1.37616 -1.061377,0.85118 -2.06524,1.40279 -3.299935,1.81331 -1.190816,0.39592 -2.554118,0.5823 -3.738204,0.51102 z m 2.532807,-15.12503 c 0.02692,-0.027 -0.0352,-0.35332 -0.0888,-0.46662 -0.07406,-0.15654 -0.18978,-0.28513 -0.312602,-0.34737 l -0.103601,-0.0525 h -1.516603 -1.516608 l -0.10258,0.0521 c -0.128584,0.0652 -0.226162,0.17519 -0.305261,0.34423 -0.05641,0.12054 -0.102487,0.31324 -0.102792,0.42991 -8.1e-5,0.0447 0.01,0.0475 0.186607,0.0533 0.377579,0.0125 3.848458,7.9e-4 3.86224,-0.013 z m -3.489857,4.83297 c 0.0071,-0.56791 0.008,-0.57135 0.166252,-0.67908 l 0.07055,-0.048 h 1.231447 1.231449 l 0.07055,0.048 c 0.158274,0.10774 0.159118,0.11114 0.16625,0.67908 0.0054,0.43557 0.01111,0.51067 0.03824,0.51067 0.0175,0 0.10105,-0.0138 0.185654,-0.0307 0.172044,-0.0344 0.341208,-0.0659 1.263536,-0.23598 0.35212,-0.0649 0.765062,-0.14185 0.917648,-0.17092 0.539931,-0.10286 2.131674,-0.39773 2.549338,-0.47223 0.09929,-0.0177 0.188121,-0.037 0.197403,-0.0426 0.0093,-0.006 0.01687,-0.83575 0.01687,-1.84448 v -1.834 h -6.636936 -6.63695 v 1.83596 c 0,1.44953 0.0056,1.83796 0.02667,1.84539 0.01467,0.006 0.261957,0.0524 0.549522,0.1049 0.287566,0.0525 0.832453,0.15405 1.21086,0.22562 0.378407,0.0716 0.719324,0.13436 0.757594,0.13954 0.03827,0.006 0.09359,0.0145 0.122932,0.0206 0.02934,0.006 0.178195,0.0347 0.33078,0.0632 0.152586,0.0285 0.51271,0.0958 0.800276,0.14965 0.287565,0.0538 0.628483,0.11742 0.757594,0.14135 0.129111,0.0239 0.297168,0.0565 0.373462,0.0724 0.258788,0.0538 0.231639,0.10808 0.239003,-0.47836 z m 2.236515,0.54268 v -0.58686 h -0.768264 -0.768266 v 0.58686 0.58687 h 0.768266 0.768264 z m 5.335168,1.98809 v -2.16267 l -0.314775,0.0592 c -0.386416,0.0727 -1.548917,0.28842 -2.576886,0.47814 -0.422545,0.078 -0.984339,0.18209 -1.24843,0.23132 l -0.480165,0.0895 -0.01089,0.19579 c -0.01169,0.20985 -0.03692,0.26707 -0.157365,0.35701 -0.05796,0.0432 -0.07971,0.044 -1.311133,0.044 h -1.252214 l -0.06984,-0.0498 c -0.109232,-0.0779 -0.154237,-0.18787 -0.154237,-0.37682 0,-0.11001 -0.0085,-0.1646 -0.02667,-0.17104 -0.01467,-0.006 -0.550055,-0.10593 -1.189743,-0.2239 -1.120549,-0.20659 -2.609244,-0.4828 -3.153084,-0.58502 l -0.261424,-0.0491 v 2.16302 2.16302 h 6.103425 6.103433 z m -12.67636,2.83022 c -0.07899,-0.0298 -0.157529,-0.10479 -0.194084,-0.18528 -0.03798,-0.0836 -0.03975,-0.19372 -0.04019,-2.51265 l -4.77e-4,-2.4252 -0.04802,-0.0113 c -0.02641,-0.006 -0.09389,-0.018 -0.14995,-0.0262 -0.113591,-0.0164 -0.213043,-0.0753 -0.280235,-0.16596 -0.04464,-0.0603 -0.04464,-0.0603 -0.04464,-2.34017 v -2.27991 l 0.06596,-0.082 c 0.03628,-0.0451 0.0939,-0.0962 0.128044,-0.11342 0.06891,-0.0348 0.148287,-0.036 2.890474,-0.0407 l 1.526609,-0.002 0.0049,-0.1227 c 0.02726,-0.68582 0.45778,-1.27623 1.038459,-1.4241 0.189982,-0.0483 3.162213,-0.0483 3.352191,0 0.191573,0.0488 0.37993,0.15248 0.534851,0.29444 0.288303,0.26416 0.447448,0.59293 0.499702,1.03231 0.0137,0.11517 0.02666,0.21124 0.02882,0.2135 0.0022,0.002 0.959195,0.006 2.12676,0.008 1.221331,0.002 2.156952,0.012 2.203156,0.0235 0.107184,0.0265 0.223363,0.13194 0.251213,0.22809 0.01546,0.0533 0.0206,0.78429 0.01626,2.31192 -0.0064,2.22828 -0.0065,2.23402 -0.05099,2.29413 -0.0672,0.0906 -0.166648,0.14958 -0.280236,0.16597 -0.05606,0.008 -0.123541,0.0198 -0.149951,0.0262 l -0.04802,0.0115 -3.18e-4,2.43587 -3.17e-4,2.43585 -0.04767,0.0834 c -0.02622,0.0458 -0.07478,0.10343 -0.107922,0.12805 l -0.06024,0.0447 -6.566028,0.003 c -3.611317,0.002 -6.580434,-0.002 -6.59804,-0.009 z"
       style="fill:#ffffff;stroke:#000000;stroke-width:0.02134067"
       id="path887-7" />
    <path
       d="m 13.037031,282.53275 4.952099,3.51467 v 0.78413 l -4.952099,3.51429 v -1.28886 c 1.259301,-0.87256 2.326285,-1.74512 3.585587,-2.61768 l -3.585587,-2.32591 z m -3.7231288,10.50186 3.3707728,-12.64342 h -1.127999 l -3.3707725,12.64342 z m -1.3072871,-10.50186 -4.9520999,3.51467 v 0.78413 l 4.9520999,3.51429 v -1.28886 C 6.7473139,288.18442 5.68033,287.31186 4.4210288,286.4393 l 3.5855863,-2.32591 z m 2.0726829,13.94396 c -1.1056457,-0.0664 -2.0553492,-0.26324 -3.0260855,-0.62672 -2.0822286,-0.77969 -3.8579856,-2.23674 -5.0387136,-4.13441 -1.02929654,-1.65428 -1.54241149,-3.53977 -1.50071961,-5.51455 0.0334256,-1.58309 0.38801877,-2.99552 1.09881201,-4.37679 0.9864177,-1.91689 2.5101007,-3.43126 4.4304818,-4.40344 1.5124909,-0.7657 3.0593936,-1.11565 4.7551789,-1.07577 1.529473,0.036 2.8758,0.36285 4.225423,1.02598 1.845565,0.90679 3.359726,2.35021 4.374175,4.16983 1.602391,2.8742 1.677722,6.39608 0.20026,9.36257 -0.323828,0.65018 -0.772943,1.33952 -1.271991,1.95238 -0.282273,0.34665 -1.003035,1.0603 -1.360011,1.34657 -1.038556,0.83287 -2.020834,1.37262 -3.228981,1.77432 -1.165213,0.38741 -2.499201,0.56978 -3.657829,0.50003 z m 1.214807,-1.45582 c 2.660042,-0.22899 5.018378,-1.62667 6.493489,-3.84836 0.806723,-1.21503 1.279951,-2.59388 1.405077,-4.094 0.0333,-0.39931 0.01396,-1.32738 -0.03553,-1.70473 -0.185797,-1.41665 -0.643835,-2.6441 -1.413657,-3.78832 -1.434546,-2.13222 -3.723775,-3.50144 -6.295486,-3.76547 -0.480432,-0.0493 -1.5601132,-0.0371 -1.9770266,0.0224 -1.4843142,0.2118 -2.7292171,0.70152 -3.9035102,1.53556 -0.4128444,0.29321 -0.710218,0.54586 -1.0928316,0.92847 -1.3646247,1.36462 -2.1824319,3.02291 -2.4640178,4.99635 -0.059489,0.4169 -0.071721,1.49659 -0.0224,1.97701 0.2174319,2.11797 1.1663449,4.02327 2.7236909,5.46885 1.4513354,1.34719 3.2368653,2.11878 5.2799594,2.28169 0.2336769,0.0186 1.0444329,0.0129 1.3022339,-0.01 z"
       style="fill:#ffffff;fill-opacity:1;stroke:none;stroke-width:0.2292382;stroke-linecap:round;stroke-linejoin:miter;stroke-miterlimit:4;stroke-dasharray:none;stroke-opacity:1;paint-order:markers fill stroke"
       id="rect951-7" />
  </g>
</svg>
