<?xml version="1.0" encoding="UTF-8" standalone="no"?>
<svg
   xmlns:dc="http://purl.org/dc/elements/1.1/"
   xmlns:cc="http://creativecommons.org/ns#"
   xmlns:rdf="http://www.w3.org/1999/02/22-rdf-syntax-ns#"
   xmlns:svg="http://www.w3.org/2000/svg"
   xmlns="http://www.w3.org/2000/svg"
   width="80"
   height="80"
   viewBox="0 0 21.166667 21.166667"
   version="1.1"
   id="svg8">
  <defs
     id="defs2" />
  <metadata
     id="metadata5">
    <rdf:RDF>
      <cc:Work
         rdf:about="">
        <dc:format>image/svg+xml</dc:format>
        <dc:type
           rdf:resource="http://purl.org/dc/dcmitype/StillImage" />
        <dc:title></dc:title>
      </cc:Work>
    </rdf:RDF>
  </metadata>
  <g
     style="stroke:#000000"
     id="layer1"
     transform="translate(0,-275.83331)">
    <path
       d="m 11.340957,295.58809 c 2.835396,-0.24409 5.349196,-1.7339 6.921548,-4.10205 0.859903,-1.29512 1.364327,-2.76487 1.497701,-4.36388 0.0355,-0.42563 0.01488,-1.41488 -0.03787,-1.81711 -0.198045,-1.51004 -0.686277,-2.8184 -1.506847,-4.03805 -1.529113,-2.27278 -3.96925,-3.73226 -6.710492,-4.01369 -0.512102,-0.0526 -1.6629573,-0.0395 -2.1073542,0.0239 -1.5821619,0.22576 -2.9091303,0.74776 -4.1608342,1.63678 -0.4400596,0.31254 -0.7570365,0.58184 -1.1648724,0.98968 -1.4545824,1.45457 -2.3263004,3.22218 -2.6264488,5.32571 -0.063411,0.44438 -0.076449,1.59525 -0.023877,2.10734 0.2317653,2.25759 1.2432318,4.28849 2.9032399,5.82936 1.5470092,1.436 3.4502433,2.25846 5.6280206,2.4321 0.2490811,0.0198 1.1132831,0.0137 1.3880791,-0.0105 z m -1.272735,1.10968 c -1.1299413,-0.0679 -2.1005133,-0.26902 -3.0925803,-0.6405 -2.127983,-0.79681 -3.94276,-2.28588 -5.149433,-4.22525 -1.05191401,-1.69063 -1.57630401,-3.61756 -1.53369601,-5.63573 0.03416,-1.61787 0.396545,-3.06134 1.12295701,-4.47296 1.008093,-1.95901 2.565257,-3.50666 4.527836,-4.5002 1.545726,-0.78252 3.12662,-1.14016 4.8596683,-1.09942 1.563081,0.0368 2.938991,0.37083 4.318271,1.04853 1.886119,0.92671 3.433552,2.40186 4.470292,4.26146 1.637602,2.93736 1.714587,6.53663 0.20466,9.5683 -0.330943,0.66447 -0.789927,1.36895 -1.299941,1.99528 -0.288476,0.35427 -1.025075,1.0836 -1.389895,1.37616 -1.061377,0.85118 -2.06524,1.40279 -3.299935,1.81331 -1.190816,0.39592 -2.554117,0.5823 -3.738204,0.51102 z m 2.532807,-15.12503 c 0.02692,-0.027 -0.0352,-0.35332 -0.0888,-0.46662 -0.07406,-0.15654 -0.18978,-0.28513 -0.312602,-0.34737 l -0.103601,-0.0525 H 10.579423 9.0628148 l -0.1025792,0.0521 c -0.1285845,0.0652 -0.2261625,0.17519 -0.3052619,0.34423 -0.056412,0.12054 -0.1024862,0.31324 -0.1027913,0.42991 -8.08e-5,0.0447 0.00998,0.0475 0.1866071,0.0533 0.3775791,0.0125 3.8484575,8e-4 3.8622395,-0.013 z m -3.4898566,4.83297 c 0.00711,-0.56791 0.00798,-0.57135 0.1662519,-0.67908 l 0.07055,-0.048 h 1.2314467 1.231449 l 0.07055,0.048 c 0.158274,0.10774 0.159118,0.11114 0.16625,0.67908 0.0054,0.43557 0.01111,0.51067 0.03824,0.51067 0.0175,0 0.10105,-0.0138 0.185654,-0.0307 0.172044,-0.0344 0.341208,-0.0659 1.263536,-0.23598 0.35212,-0.0649 0.765062,-0.14185 0.917648,-0.17092 0.539932,-0.10286 2.131674,-0.39773 2.549339,-0.47223 0.09929,-0.0177 0.18812,-0.037 0.197403,-0.0426 0.0093,-0.006 0.01687,-0.83575 0.01687,-1.84448 v -1.834 H 10.579423 3.9424733 v 1.83596 c 0,1.44953 0.00561,1.83796 0.026675,1.84539 0.014672,0.006 0.2619568,0.0524 0.5495222,0.1049 0.2875655,0.0525 0.8324524,0.15405 1.2108596,0.22562 0.3784073,0.0716 0.7193245,0.13436 0.7575939,0.13954 0.038269,0.006 0.093589,0.0145 0.1229323,0.0206 0.029343,0.006 0.1781945,0.0347 0.3307801,0.0632 0.1525858,0.0285 0.51271,0.0958 0.8002757,0.14965 0.2875655,0.0538 0.6284828,0.11742 0.7575938,0.14135 0.1291111,0.0239 0.2971687,0.0565 0.373462,0.0724 0.2587886,0.0538 0.231639,0.10808 0.2390037,-0.47836 z m 2.2365146,0.54268 v -0.58686 H 10.579423 9.8111573 v 0.58686 0.58687 h 0.7682657 0.768264 z m 5.335168,1.98809 v -2.16267 l -0.314775,0.0592 c -0.386415,0.0727 -1.548917,0.28842 -2.576886,0.47814 -0.422545,0.078 -0.984339,0.18209 -1.24843,0.23132 l -0.480164,0.0895 -0.01089,0.19579 c -0.01169,0.20985 -0.03692,0.26707 -0.157365,0.35701 -0.05796,0.0432 -0.07971,0.044 -1.311133,0.044 H 9.3309971 l -0.06984,-0.0498 C 9.1519263,288.10107 9.10692,287.9911 9.10692,287.80215 c 0,-0.11001 -0.00851,-0.1646 -0.026672,-0.17104 -0.01467,-0.006 -0.5500553,-0.10593 -1.1897423,-0.2239 -1.1205489,-0.20659 -2.6092449,-0.4828 -3.1530842,-0.58502 l -0.2614229,-0.0491 v 2.16302 2.16302 h 6.1034234 6.103433 z M 4.0064952,291.7667 c -0.078992,-0.0298 -0.1575288,-0.10479 -0.1940841,-0.18528 -0.037985,-0.0836 -0.039746,-0.19372 -0.040194,-2.51265 l -4.678e-4,-2.4252 -0.048016,-0.0113 c -0.026409,-0.006 -0.093886,-0.018 -0.1499501,-0.0262 -0.1135908,-0.0164 -0.2130438,-0.0753 -0.2802361,-0.16596 -0.044643,-0.0603 -0.044644,-0.0603 -0.044644,-2.34017 v -2.27991 l 0.065961,-0.082 c 0.036279,-0.0451 0.093898,-0.0962 0.128044,-0.11342 0.068905,-0.0348 0.1482875,-0.036 2.8904741,-0.0407 l 1.5266103,-0.002 0.00488,-0.1227 c 0.027257,-0.68582 0.4577797,-1.27623 1.0384591,-1.4241 0.1899803,-0.0483 3.1622114,-0.0483 3.3521904,0 0.191573,0.0488 0.37993,0.15248 0.534851,0.29444 0.288303,0.26416 0.447448,0.59293 0.499702,1.03231 0.0137,0.11517 0.02666,0.21124 0.02882,0.2135 0.0022,0.002 0.959195,0.006 2.12676,0.008 1.221331,0.002 2.156952,0.012 2.203156,0.0235 0.107184,0.0265 0.223363,0.13194 0.251213,0.22809 0.01546,0.0533 0.0206,0.78429 0.01626,2.31192 -0.0064,2.22828 -0.0065,2.23402 -0.05099,2.29413 -0.0672,0.0906 -0.166648,0.14958 -0.280236,0.16597 -0.05606,0.008 -0.123541,0.0198 -0.149951,0.0262 l -0.04802,0.0115 -3.23e-4,2.43587 -3.24e-4,2.43585 -0.04767,0.0834 c -0.02622,0.0458 -0.07478,0.10343 -0.107922,0.12805 l -0.06024,0.0447 -6.566028,0.003 c -3.6113165,0.002 -6.5804339,-0.002 -6.5980399,-0.009 z"
       style="fill:#ffffff;stroke-width:0.02134067;stroke:none"
       id="path887" />
    <path
       id="path865"
       d=""
       style="fill:#000000;stroke-width:0.26458335" />
  </g>
</svg>
