<?xml version="1.0" encoding="UTF-8" standalone="no"?>
<svg
   xmlns:dc="http://purl.org/dc/elements/1.1/"
   xmlns:cc="http://creativecommons.org/ns#"
   xmlns:rdf="http://www.w3.org/1999/02/22-rdf-syntax-ns#"
   xmlns:svg="http://www.w3.org/2000/svg"
   xmlns="http://www.w3.org/2000/svg"
   width="80"
   height="80"
   viewBox="0 0 21.166667 21.166667"
   version="1.1"
   id="svg8">
  <defs
     id="defs2" />
  <metadata
     id="metadata5">
    <rdf:RDF>
      <cc:Work
         rdf:about="">
        <dc:format>image/svg+xml</dc:format>
        <dc:type
           rdf:resource="http://purl.org/dc/dcmitype/StillImage" />
        <dc:title></dc:title>
      </cc:Work>
    </rdf:RDF>
  </metadata>
  <g
     style="stroke:#000000"
     id="layer1"
     transform="translate(0,-275.83331)">
    <path
       id="path865"
       d=""
       style="fill:#000000;stroke-width:0.26458335" />
    <path
       d="m 8.1626384,289.69794 h 3.3406326 c 0.227459,0 0.410577,0.18312 0.410577,0.41059 0,0.22745 -0.183118,0.41057 -0.410577,0.41057 H 8.1626384 c -0.2274595,0 -0.4105768,-0.18312 -0.4105768,-0.41057 0,-0.22747 0.1831173,-0.41059 0.4105768,-0.41059 z m -5.489251,-5.98722 h 8.8298836 c 0.227459,0 0.410577,0.18312 0.410577,0.41059 0,0.22746 -0.183118,0.41056 -0.410577,0.41056 H 2.6733874 c -0.2274595,0 -0.4105768,-0.1831 -0.4105768,-0.41056 0,-0.22747 0.1831173,-0.41059 0.4105768,-0.41059 z m 0,-2.55635 h 8.8298836 c 0.227459,0 0.410577,0.18313 0.410577,0.41059 0,0.22746 -0.183118,0.41057 -0.410577,0.41057 H 2.6733874 c -0.2274595,0 -0.4105768,-0.18311 -0.4105768,-0.41057 0,-0.22746 0.1831173,-0.41059 0.4105768,-0.41059 z m 10.1761956,8.63458 v 3.0421 c 0,0.35733 -0.287684,0.64502 -0.645032,0.64502 H 1.9230125 c -0.3573481,0 -0.6450327,-0.28769 -0.6450327,-0.64502 v -13.1898 c 0,-0.35735 0.2876846,-0.64504 0.6450327,-0.64504 H 12.204551 c 0.357348,0 0.645032,0.28769 0.645032,0.64504 v 2.61233 c 0.02591,0.334 0.07472,0.63927 0.206139,0.69019 0.316633,-0.0841 0.558177,-0.61889 0.832374,-0.95768 l -1e-6,-3.21519 c 0,-0.40758 -0.328126,-0.73571 -0.735709,-0.73571 H 1.0512836 v 0 c -0.40758202,0 -0.73570746,0.32813 -0.73570746,0.73571 v 15.04393 c 0,0.40759 0.32812544,0.73571 0.73570746,0.73571 H 13.152386 c 0.407583,0 0.735709,-0.32812 0.735709,-0.73571 v -4.20894 c 0.08187,-0.5471 -0.830575,-0.21731 -1.038512,0.18306 z m -0.935293,-0.87647 c 0.03999,-0.0647 0.287696,-0.15799 0.55045,-0.20729 0.262755,-0.0493 0.620778,-0.15479 0.795605,-0.23445 0.345774,-0.15755 3.135269,-3.35794 3.15992,-3.62537 0.01844,-0.20011 -2.005451,-1.82481 -2.156713,-1.73134 -0.05927,0.0367 -0.699404,0.89009 -1.422537,1.89658 -1.30721,1.81943 -1.31493,1.83474 -1.340148,2.65877 -0.01395,0.45585 -0.06243,0.88878 -0.107723,0.96207 -0.0453,0.0733 -0.04546,0.19299 -3.99e-4,0.26598 0.101572,0.16433 0.423494,0.17363 0.521503,0.015 z m 7.940506,-5.53639 c 0.491332,-0.62823 0.893334,-1.25523 0.893334,-1.39334 0,-0.52927 -0.486152,-0.23394 -1.264826,0.76835 -0.987709,1.27132 -1.029871,1.34202 -0.939993,1.57624 0.145755,0.37983 0.433946,0.1708 1.311485,-0.95125 z m -1.104761,-0.9094 c 0.729186,-0.94594 1.363397,-1.89111 1.409364,-2.10039 0.230914,-1.05134 -0.535317,-2.08486 -1.545675,-2.08486 -0.293025,0 -0.702629,0.0878 -0.910228,0.19519 -0.361837,0.1871 -3.06869,3.50395 -3.050985,3.73851 0.01362,0.18045 2.428659,2.03175 2.609051,2.00004 0.08948,-0.0158 0.759286,-0.80255 1.488473,-1.74849 z"
       style="fill:#ffffff;fill-opacity:1;stroke:none;stroke-width:0.02864309;stroke-linecap:round;stroke-linejoin:miter;stroke-miterlimit:4;stroke-dasharray:none;stroke-opacity:1;paint-order:markers fill stroke"
       id="rect1160-7-3" />
  </g>
</svg>
