<?xml version="1.0" encoding="UTF-8" standalone="no"?>
<svg
   xmlns:dc="http://purl.org/dc/elements/1.1/"
   xmlns:cc="http://creativecommons.org/ns#"
   xmlns:rdf="http://www.w3.org/1999/02/22-rdf-syntax-ns#"
   xmlns:svg="http://www.w3.org/2000/svg"
   xmlns="http://www.w3.org/2000/svg"
   width="80"
   height="80"
   viewBox="0 0 21.166667 21.166667"
   version="1.1"
   id="svg8">
  <defs
     id="defs2" />
  <metadata
     id="metadata5">
    <rdf:RDF>
      <cc:Work
         rdf:about="">
        <dc:format>image/svg+xml</dc:format>
        <dc:type
           rdf:resource="http://purl.org/dc/dcmitype/StillImage" />
        <dc:title></dc:title>
      </cc:Work>
    </rdf:RDF>
  </metadata>
  <g
     style="stroke:#000000"
     id="layer1"
     transform="translate(0,-275.83331)">
    <path
       d="m 5.9546672,287.75539 c 0.00767,-0.58247 0.00989,-2.22571 0.067395,-2.34273 0.2720224,-0.55351 1.2150553,-0.83747 3.0987538,-0.9331 0.6475741,-0.0329 2.931072,-0.0165 3.410671,0.0245 1.52574,0.13027 2.342467,0.40779 2.596352,0.88224 0.0499,0.0933 0.05341,1.7547 0.06052,2.34185 l 0.0074,0.62325 -0.12851,-0.0521 c -0.845835,-0.34235 -2.107611,-0.51166 -4.060158,-0.54474 -2.2950256,-0.0388 -3.9912305,0.15877 -5.0162574,0.58455 -0.042278,0.0175 -0.043884,-0.008 -0.036293,-0.58376 z m 3.3105272,2.48195 c -2.0964265,-0.12476 -3.4509397,-0.48291 -3.2905758,-0.87006 0.182096,-0.43961 2.1686157,-0.7729 4.6139124,-0.77411 2.529504,-9.4e-4 4.604377,0.37531 4.604377,0.8356 0,0.33902 -1.013409,0.61866 -2.80659,0.77448 -0.521694,0.0453 -2.558445,0.0676 -3.1211236,0.0341 z M 4.0803627,290.0278 c -0.243841,-0.38514 -0.4078508,-0.68472 -0.5295683,-0.96729 -0.088836,-0.20623 -0.1019664,-0.25954 -0.1029049,-0.41786 -0.00143,-0.24241 0.084707,-0.43623 0.2685895,-0.6043 l 0.1295434,-0.11838 -0.00627,-1.20243 -0.00627,-1.20242 -0.5674998,-0.38995 c -0.6315793,-0.434 -0.6659966,-0.46967 -0.6628519,-0.68719 0.00146,-0.10235 0.016814,-0.15113 0.072557,-0.2308 0.06984,-0.0998 0.1164593,-0.1214 3.9289186,-1.81724 3.4572827,-1.53785 3.8708107,-1.71613 3.9792117,-1.71556 0.107121,7e-4 0.558667,0.19539 3.943745,1.70156 2.102524,0.93551 3.846531,1.7184 3.875572,1.73976 0.08691,0.0639 0.152855,0.20439 0.152855,0.32559 0,0.2326 0.02275,0.21295 -1.269535,1.09713 -0.652428,0.44639 -1.199842,0.81691 -1.216476,0.82337 -0.02353,0.008 -0.03025,-0.0874 -0.03025,-0.43458 0,-0.36528 -0.0087,-0.48025 -0.0478,-0.6332 -0.064,-0.25025 -0.17093,-0.44315 -0.357084,-0.64421 -0.494417,-0.53402 -1.406405,-0.84405 -2.885609,-0.98097 -0.568366,-0.0526 -2.9052545,-0.0758 -3.7017965,-0.0368 -1.9318304,0.0948 -3.0419521,0.43017 -3.5854862,1.0834 -0.263131,0.31623 -0.3376649,0.57976 -0.3426651,1.21151 -0.0027,0.34173 -0.010325,0.43916 -0.033663,0.43025 -0.01659,-0.007 -0.1118589,-0.0666 -0.2117037,-0.13402 l -0.1815362,-0.1225 5.595e-4,0.9141 5.597e-4,0.91408 0.096099,0.0679 c 0.1121212,0.0794 0.2283896,0.23933 0.279807,0.38506 0.1191279,0.33764 -0.013552,0.70459 -0.5907246,1.63375 -0.1012591,0.16301 -0.1917908,0.2964 -0.2011813,0.2964 -0.0094,0 -0.098067,-0.12794 -0.1970561,-0.28431 z m 7.2292883,5.1812 c 2.718216,-0.234 5.128127,-1.66224 6.635497,-3.93252 0.824366,-1.2416 1.307943,-2.65061 1.435805,-4.18353 0.03403,-0.40804 0.01427,-1.35641 -0.03631,-1.74202 -0.18986,-1.44763 -0.657915,-2.70192 -1.444572,-3.87116 -1.465919,-2.17885 -3.805211,-3.57802 -6.433164,-3.84782 -0.490938,-0.0504 -1.5942314,-0.0379 -2.0202623,0.0229 -1.5167748,0.21643 -2.7889028,0.71685 -3.9888764,1.56913 -0.4218737,0.29963 -0.7257499,0.5578 -1.1167313,0.94878 -1.3944684,1.39446 -2.2301596,3.08902 -2.5179043,5.10561 -0.060789,0.42602 -0.073291,1.52932 -0.02289,2.02025 0.2221878,2.16429 1.1918522,4.11126 2.783256,5.58845 1.4830755,1.37665 3.307653,2.16512 5.3954286,2.33158 0.2387867,0.019 1.0672727,0.0131 1.3307127,-0.0101 z m -1.241427,1.48877 c -1.1299409,-0.0679 -2.1005129,-0.26902 -3.0925797,-0.6405 -2.1279833,-0.79681 -3.9427598,-2.28588 -5.1494332,-4.22525 -1.05191414,-1.69063 -1.57630449,-3.61756 -1.53369636,-5.63573 0.0341559,-1.61787 0.39654559,-3.06134 1.12295686,-4.47296 1.0080939,-1.95901 2.5652571,-3.50666 4.5278369,-4.5002 1.5457259,-0.78252 3.1266196,-1.14016 4.8596675,-1.09942 1.563081,0.0368 2.938991,0.37083 4.318271,1.04853 1.886119,0.92671 3.433552,2.40186 4.470292,4.26146 1.637602,2.93736 1.714587,6.53663 0.20466,9.5683 -0.330943,0.66447 -0.789927,1.36895 -1.299941,1.99528 -0.288476,0.35427 -1.025075,1.0836 -1.389895,1.37616 -1.061377,0.85118 -2.06524,1.40279 -3.299935,1.81331 -1.190816,0.39592 -2.554117,0.5823 -3.738204,0.51102 z"
       style="fill:#ffffff;stroke:none;stroke-width:0.02419475"
       id="path883" />
  </g>
</svg>
