<?xml version="1.0" encoding="UTF-8" standalone="no"?>
<svg
   xmlns:dc="http://purl.org/dc/elements/1.1/"
   xmlns:cc="http://creativecommons.org/ns#"
   xmlns:rdf="http://www.w3.org/1999/02/22-rdf-syntax-ns#"
   xmlns:svg="http://www.w3.org/2000/svg"
   xmlns="http://www.w3.org/2000/svg"
   id="svg1220"
   version="1.1"
   viewBox="0 0 52.916665 52.916668"
   height="200"
   width="200">
  <defs
     id="defs1214" />
  <metadata
     id="metadata1217">
    <rdf:RDF>
      <cc:Work
         rdf:about="">
        <dc:format>image/svg+xml</dc:format>
        <dc:type
           rdf:resource="http://purl.org/dc/dcmitype/StillImage" />
        <dc:title></dc:title>
      </cc:Work>
    </rdf:RDF>
  </metadata>
  <g
     transform="translate(0,-244.08332)"
     id="layer1">
    <g
       transform="matrix(0.39698917,0,0,0.39698917,-15.281432,208.83911)"
       id="g1071"
       style="font-style:normal;font-variant:normal;font-weight:bold;font-stretch:normal;font-size:6.23329401px;line-height:1.25;font-family:sans-serif;-inkscape-font-specification:'sans-serif, Bold';font-variant-ligatures:normal;font-variant-caps:normal;font-variant-numeric:normal;font-feature-settings:normal;text-align:start;letter-spacing:0px;word-spacing:0px;writing-mode:lr-tb;text-anchor:start;fill:#ffffff;fill-opacity:1;stroke:none;stroke-width:0.1298603">
      <g
         aria-label="UNIVERSIDAD NACIONAL DE ROSARIO"
         transform="matrix(-0.79958541,0.58645797,-0.58645797,-0.79958541,313.61197,261.99237)"
         style="font-style:normal;font-variant:normal;font-weight:normal;font-stretch:normal;font-size:12.69999981px;line-height:1.25;font-family:sans-serif;-inkscape-font-specification:'sans-serif, Normal';font-variant-ligatures:normal;font-variant-caps:normal;font-variant-numeric:normal;font-feature-settings:normal;text-align:start;letter-spacing:0px;word-spacing:0px;writing-mode:lr-tb;text-anchor:start;fill:#ffffff;fill-opacity:1;stroke:none;stroke-width:0.26458332"
         id="text817">
        <path
           d="m 168.25042,204.8669 0.13126,2.251 -5.23282,0.30514 q -1.08165,0.0631 -1.52893,0.44115 -0.44109,0.38359 -0.39438,1.18459 0.0471,0.80685 0.5294,1.13072 0.48853,0.32937 1.57018,0.2663 l 5.23282,-0.30514 0.13126,2.25099 -5.23282,0.30514 q -1.85341,0.10808 -2.81387,-0.7687 -0.96045,-0.87679 -1.0716,-2.78282 -0.1108,-1.90019 0.74123,-2.88266 0.85203,-0.98248 2.70545,-1.09056 z"
           style="font-style:normal;font-variant:normal;font-weight:bold;font-stretch:normal;font-size:11.99444485px;font-family:sans-serif;-inkscape-font-specification:'sans-serif, Bold';font-variant-ligatures:normal;font-variant-caps:normal;font-variant-numeric:normal;font-feature-settings:normal;text-align:start;writing-mode:lr-tb;text-anchor:start;fill:#ffffff"
           id="path882" />
        <path
           d="m 168.5834,216.18973 -0.30804,2.49946 -6.34117,2.42273 5.95219,0.73355 -0.26147,2.12163 -8.67834,-1.06952 0.30803,-2.49946 6.34118,-2.42273 -5.95219,-0.73355 0.26147,-2.12163 z"
           style="font-style:normal;font-variant:normal;font-weight:bold;font-stretch:normal;font-size:11.99444485px;font-family:sans-serif;-inkscape-font-specification:'sans-serif, Bold';font-variant-ligatures:normal;font-variant-caps:normal;font-variant-numeric:normal;font-feature-settings:normal;text-align:start;writing-mode:lr-tb;text-anchor:start;fill:#ffffff"
           id="path884" />
        <path
           d="m 166.80795,227.24449 -0.57076,2.18138 -8.45923,-2.21339 0.57077,-2.18137 z"
           style="font-style:normal;font-variant:normal;font-weight:bold;font-stretch:normal;font-size:11.99444485px;font-family:sans-serif;-inkscape-font-specification:'sans-serif, Bold';font-variant-ligatures:normal;font-variant-caps:normal;font-variant-numeric:normal;font-feature-settings:normal;text-align:start;writing-mode:lr-tb;text-anchor:start;fill:#ffffff"
           id="path886" />
        <path
           d="m 165.73094,231.65135 -0.84442,2.10335 -6.85346,-0.25225 5.12752,4.55136 -0.84442,2.10336 -6.90787,-6.26325 1.00152,-2.49467 z"
           style="font-style:normal;font-variant:normal;font-weight:bold;font-stretch:normal;font-size:11.99444485px;font-family:sans-serif;-inkscape-font-specification:'sans-serif, Bold';font-variant-ligatures:normal;font-variant-caps:normal;font-variant-numeric:normal;font-feature-settings:normal;text-align:start;writing-mode:lr-tb;text-anchor:start;fill:#ffffff"
           id="path888" />
        <path
           d="m 161.06074,242.3969 -3.13328,5.21638 -1.46098,-0.87756 1.97224,-3.28346 -1.39572,-0.83835 -1.85464,3.08766 -1.46099,-0.87756 1.85464,-3.08766 -1.71704,-1.03136 -2.03859,3.39391 -1.46099,-0.87755 3.19962,-5.32684 z"
           style="font-style:normal;font-variant:normal;font-weight:bold;font-stretch:normal;font-size:11.99444485px;font-family:sans-serif;-inkscape-font-specification:'sans-serif, Bold';font-variant-ligatures:normal;font-variant-caps:normal;font-variant-numeric:normal;font-feature-settings:normal;text-align:start;writing-mode:lr-tb;text-anchor:start;fill:#ffffff"
           id="path890" />
        <path
           d="m 150.89121,250.4399 q -0.45602,0.54244 -0.45026,0.94515 0.002,0.40719 0.46374,0.79537 0.45726,0.38442 0.85426,0.31264 0.39322,-0.0673 0.84924,-0.60973 l 0.61054,-0.72624 -1.71698,-1.44343 z m -0.58194,-1.72872 -2.53288,-2.12934 1.45097,-1.72595 6.69308,5.62673 -2.21602,2.63599 q -1.11178,1.32248 -2.07191,1.56354 -0.9639,0.24555 -1.92326,-0.56096 -0.66348,-0.55778 -0.81801,-1.23858 -0.1583,-0.67632 0.18266,-1.49146 -0.37842,0.28631 -0.899,0.32306 -0.51985,0.045 -1.33936,-0.15426 l -2.68845,-0.66101 1.54519,-1.83802 2.34909,0.5823 q 0.70938,0.17554 1.108,0.0745 0.39485,-0.0965 0.74911,-0.51793 z"
           style="font-style:normal;font-variant:normal;font-weight:bold;font-stretch:normal;font-size:11.99444485px;font-family:sans-serif;-inkscape-font-specification:'sans-serif, Bold';font-variant-ligatures:normal;font-variant-caps:normal;font-variant-numeric:normal;font-feature-settings:normal;text-align:start;writing-mode:lr-tb;text-anchor:start;fill:#ffffff"
           id="path892" />
        <path
           d="m 144.02361,262.1869 -1.20521,-1.40449 q 0.75645,-0.22466 1.38326,-0.54644 0.62681,-0.32179 1.08904,-0.71844 0.61335,-0.52632 0.76177,-0.94694 0.14841,-0.42061 -0.15671,-0.77618 -0.22883,-0.26667 -0.55407,-0.24998 -0.32587,0.025 -0.93742,0.36452 l -0.85477,0.47882 q -1.2974,0.72744 -2.1531,0.67456 -0.8557,-0.0529 -1.57273,-0.88846 -0.94204,-1.09782 -0.75017,-2.19626 0.19123,-1.09019 1.52905,-2.23819 0.63113,-0.54158 1.36968,-0.96697 0.73855,-0.42539 1.57627,-0.73522 l 1.23953,1.44449 q -0.92543,0.20761 -1.66531,0.54152 -0.7405,0.34218 -1.29163,0.81511 -0.56002,0.48055 -0.69762,0.92276 -0.1376,0.44221 0.15989,0.78889 0.26698,0.31112 0.61636,0.30457 0.34493,-0.003 1.06381,-0.38809 l 0.78811,-0.42161 q 1.17865,-0.64099 2.04135,-0.57096 0.85826,0.0739 1.53714,0.86498 0.85051,0.99115 0.66817,2.0737 -0.18235,1.08256 -1.38239,2.11233 -0.54668,0.46911 -1.19694,0.88048 -0.64645,0.41581 -1.40536,0.7815 z"
           style="font-style:normal;font-variant:normal;font-weight:bold;font-stretch:normal;font-size:11.99444485px;font-family:sans-serif;-inkscape-font-specification:'sans-serif, Bold';font-variant-ligatures:normal;font-variant-caps:normal;font-variant-numeric:normal;font-feature-settings:normal;text-align:start;writing-mode:lr-tb;text-anchor:start;fill:#ffffff"
           id="path894" />
        <path
           d="m 141.27026,264.49216 -1.87435,1.2534 -4.8606,-7.26856 1.87435,-1.25341 z"
           style="font-style:normal;font-variant:normal;font-weight:bold;font-stretch:normal;font-size:11.99444485px;font-family:sans-serif;-inkscape-font-specification:'sans-serif, Bold';font-variant-ligatures:normal;font-variant-caps:normal;font-variant-numeric:normal;font-feature-settings:normal;text-align:start;writing-mode:lr-tb;text-anchor:start;fill:#ffffff"
           id="path896" />
        <path
           d="m 133.79153,267.05344 -2.3541,-4.78799 -0.7253,0.3566 q -1.24036,0.60985 -1.58973,1.5452 -0.35463,0.93793 0.22162,2.10997 0.57367,1.16677 1.52513,1.45602 0.95147,0.28924 2.19709,-0.32319 z m 2.77544,0.53455 -2.13384,1.04914 q -1.78696,0.87859 -2.78603,1.05002 -1.00175,0.17927 -1.92694,-0.12289 -0.81285,-0.25951 -1.42199,-0.82148 -0.60914,-0.56197 -1.04069,-1.43968 -0.43671,-0.88822 -0.51235,-1.71903 -0.0731,-0.82555 0.21781,-1.62771 0.33093,-0.91976 1.08728,-1.61141 0.75893,-0.68641 2.52487,-1.55466 l 2.13383,-1.04914 z"
           style="font-style:normal;font-variant:normal;font-weight:bold;font-stretch:normal;font-size:11.99444485px;font-family:sans-serif;-inkscape-font-specification:'sans-serif, Bold';font-variant-ligatures:normal;font-variant-caps:normal;font-variant-numeric:normal;font-feature-settings:normal;text-align:start;writing-mode:lr-tb;text-anchor:start;fill:#ffffff"
           id="path898" />
        <path
           d="m 119.01204,266.93265 3.3879,-0.97612 0.0936,-1.68478 2.17793,-0.62751 -0.69128,9.29887 -2.58312,0.74425 -5.53299,-7.50552 2.17793,-0.62751 z m 3.29678,0.73842 -2.30174,0.66318 2.11121,3.01209 z"
           style="font-style:normal;font-variant:normal;font-weight:bold;font-stretch:normal;font-size:11.99444485px;font-family:sans-serif;-inkscape-font-specification:'sans-serif, Bold';font-variant-ligatures:normal;font-variant-caps:normal;font-variant-numeric:normal;font-feature-settings:normal;text-align:start;writing-mode:lr-tb;text-anchor:start;fill:#ffffff"
           id="path900" />
        <path
           d="m 113.20083,273.58574 -0.5676,-5.30514 -0.80364,0.086 q -1.37432,0.14704 -2.02353,0.90564 -0.65503,0.75922 -0.51609,2.05785 0.13832,1.2928 0.93269,1.89106 0.79438,0.59826 2.17454,0.45059 z m 2.42333,1.45474 -2.36431,0.25296 q -1.97997,0.21184 -2.97719,0.0299 -1.00242,-0.17547 -1.76768,-0.77685 -0.67439,-0.52274 -1.05363,-1.25966 -0.37923,-0.73692 -0.48328,-1.70943 -0.1053,-0.98416 0.10883,-1.79045 0.21475,-0.80047 0.76328,-1.45405 0.62654,-0.75029 1.57435,-1.14031 0.94843,-0.3842 2.9051,-0.59354 l 2.36431,-0.25296 z"
           style="font-style:normal;font-variant:normal;font-weight:bold;font-stretch:normal;font-size:11.99444485px;font-family:sans-serif;-inkscape-font-specification:'sans-serif, Bold';font-variant-ligatures:normal;font-variant-caps:normal;font-variant-numeric:normal;font-feature-settings:normal;text-align:start;writing-mode:lr-tb;text-anchor:start;fill:#ffffff"
           id="path902" />
        <path
           d="m 99.25566,275.68091 -2.489244,-0.38187 -2.233999,-6.4101 -0.909394,5.92787 -2.112963,-0.32415 1.325903,-8.64288 2.489244,0.38187 2.234,6.4101 0.909394,-5.92787 2.112959,0.32415 z"
           style="font-style:normal;font-variant:normal;font-weight:bold;font-stretch:normal;font-size:11.99444485px;font-family:sans-serif;-inkscape-font-specification:'sans-serif, Bold';font-variant-ligatures:normal;font-variant-caps:normal;font-variant-numeric:normal;font-feature-settings:normal;text-align:start;writing-mode:lr-tb;text-anchor:start;fill:#ffffff"
           id="path904" />
        <path
           d="m 85.153371,265.07689 3.335934,1.14113 1.042029,-1.32719 2.144529,0.73359 -5.894485,7.22509 -2.543512,-0.87007 -0.234323,-9.32159 2.144529,0.73359 z m 2.278886,2.49413 -2.26644,-0.77529 0.0045,3.6783 z"
           style="font-style:normal;font-variant:normal;font-weight:bold;font-stretch:normal;font-size:11.99444485px;font-family:sans-serif;-inkscape-font-specification:'sans-serif, Bold';font-variant-ligatures:normal;font-variant-caps:normal;font-variant-numeric:normal;font-feature-settings:normal;text-align:start;writing-mode:lr-tb;text-anchor:start;fill:#ffffff"
           id="path906" />
        <path
           d="m 75.637378,259.21995 q 0.69931,0.0112 1.369954,0.18652 0.670644,0.17537 1.314997,0.52286 1.922748,1.03694 2.468263,2.71518 0.542734,1.68339 -0.44972,3.52366 -0.995235,1.84543 -2.697222,2.3116 -1.704768,0.47132 -3.627516,-0.56562 -0.644353,-0.3475 -1.159318,-0.81153 -0.514965,-0.46403 -0.908477,-1.04223 l 0.859015,-1.59284 q 0.348627,0.67376 0.790209,1.13815 0.441582,0.46438 1.034387,0.78408 1.061893,0.57267 2.03712,0.22028 0.975227,-0.3524 1.620183,-1.54832 0.642176,-1.19076 0.400865,-2.19924 -0.241311,-1.00847 -1.303204,-1.58115 -0.592805,-0.3197 -1.223425,-0.43355 -0.630621,-0.11386 -1.385126,-0.035 z"
           style="font-style:normal;font-variant:normal;font-weight:bold;font-stretch:normal;font-size:11.99444485px;font-family:sans-serif;-inkscape-font-specification:'sans-serif, Bold';font-variant-ligatures:normal;font-variant-caps:normal;font-variant-numeric:normal;font-feature-settings:normal;text-align:start;writing-mode:lr-tb;text-anchor:start;fill:#ffffff"
           id="path908" />
        <path
           d="m 69.307617,264.82388 -1.84161,-1.30102 5.04527,-7.14162 1.84161,1.30102 z"
           style="font-style:normal;font-variant:normal;font-weight:bold;font-stretch:normal;font-size:11.99444485px;font-family:sans-serif;-inkscape-font-specification:'sans-serif, Bold';font-variant-ligatures:normal;font-variant-caps:normal;font-variant-numeric:normal;font-feature-settings:normal;text-align:start;writing-mode:lr-tb;text-anchor:start;fill:#ffffff"
           id="path910" />
        <path
           d="m 62.799733,257.74538 q 0.75555,0.70117 1.689869,0.52953 0.934319,-0.17164 1.874522,-1.18476 0.936218,-1.00883 1.037715,-1.95335 0.101497,-0.94451 -0.654053,-1.64568 -0.759843,-0.70515 -1.694162,-0.53351 -0.934319,0.17163 -1.870537,1.18046 -0.940203,1.01313 -1.0417,1.95764 -0.101497,0.94452 0.658346,1.64967 z m -1.11151,1.19772 q -1.545443,-1.43421 -1.60051,-3.13126 -0.05507,-1.69705 1.391093,-3.25538 1.442175,-1.55403 3.138611,-1.62565 1.696436,-0.0716 3.24188,1.36259 1.54115,1.43022 1.600509,3.13126 0.05507,1.69706 -1.387109,3.25109 -1.446159,1.55832 -3.142595,1.62994 -1.700729,0.0676 -3.241879,-1.36259 z"
           style="font-style:normal;font-variant:normal;font-weight:bold;font-stretch:normal;font-size:11.99444485px;font-family:sans-serif;-inkscape-font-specification:'sans-serif, Bold';font-variant-ligatures:normal;font-variant-caps:normal;font-variant-numeric:normal;font-feature-settings:normal;text-align:start;writing-mode:lr-tb;text-anchor:start;fill:#ffffff"
           id="path912" />
        <path
           d="m 56.311268,253.24846 -1.500511,-2.02253 2.921615,-6.12734 -4.816445,3.57331 -1.273689,-1.7168 7.022414,-5.20991 1.50051,2.02253 -2.921614,6.12734 4.816445,-3.57331 1.273689,1.7168 z"
           style="font-style:normal;font-variant:normal;font-weight:bold;font-stretch:normal;font-size:11.99444485px;font-family:sans-serif;-inkscape-font-specification:'sans-serif, Bold';font-variant-ligatures:normal;font-variant-caps:normal;font-variant-numeric:normal;font-feature-settings:normal;text-align:start;writing-mode:lr-tb;text-anchor:start;fill:#ffffff"
           id="path914" />
        <path
           d="m 53.745962,235.79274 1.568413,3.15765 1.674217,-0.21035 1.008266,2.02991 -9.271919,0.98914 -1.19585,-2.40757 6.390415,-6.7904 1.008266,2.02992 z m -0.134635,3.37578 -1.065583,-2.14531 -2.584193,2.61761 z"
           style="font-style:normal;font-variant:normal;font-weight:bold;font-stretch:normal;font-size:11.99444485px;font-family:sans-serif;-inkscape-font-specification:'sans-serif, Bold';font-variant-ligatures:normal;font-variant-caps:normal;font-variant-numeric:normal;font-feature-settings:normal;text-align:start;writing-mode:lr-tb;text-anchor:start;fill:#ffffff"
           id="path916" />
        <path
           d="m 45.276842,234.04988 -0.678464,-2.15032 6.713467,-2.11822 -1.191279,-3.77563 1.625307,-0.51281 1.869743,5.92595 z"
           style="font-style:normal;font-variant:normal;font-weight:bold;font-stretch:normal;font-size:11.99444485px;font-family:sans-serif;-inkscape-font-specification:'sans-serif, Bold';font-variant-ligatures:normal;font-variant-caps:normal;font-variant-numeric:normal;font-feature-settings:normal;text-align:start;writing-mode:lr-tb;text-anchor:start;fill:#ffffff"
           id="path918" />
        <path
           d="m 43.470904,218.22279 5.322042,-0.37759 -0.0572,-0.8062 q -0.09782,-1.3787 -0.832723,-2.05461 -0.735321,-0.68176 -2.038082,-0.58933 -1.296919,0.092 -1.923193,0.8645 -0.626275,0.77248 -0.528043,2.15703 z m -1.540441,2.36977 -0.168278,-2.37184 q -0.140922,-1.98628 0.07653,-2.97635 0.211198,-0.99551 0.839544,-1.73878 0.54652,-0.65527 1.296523,-1.00793 0.750002,-0.35265 1.725613,-0.42186 0.987294,-0.07 1.785415,0.17276 0.79228,0.24323 1.425839,0.81478 0.727407,0.65296 1.083296,1.6141 0.350047,0.96156 0.489312,2.92446 l 0.168278,2.37184 z"
           style="font-style:normal;font-variant:normal;font-weight:bold;font-stretch:normal;font-size:11.99444485px;font-family:sans-serif;-inkscape-font-specification:'sans-serif, Bold';font-variant-ligatures:normal;font-variant-caps:normal;font-variant-numeric:normal;font-feature-settings:normal;text-align:start;writing-mode:lr-tb;text-anchor:start;fill:#ffffff"
           id="path920" />
        <path
           d="m 41.495816,209.19624 0.576489,-6.05771 1.696623,0.16146 -0.362872,3.81303 1.620829,0.15425 0.341233,-3.58564 1.696623,0.16146 -0.341233,3.58564 1.99397,0.18976 0.375079,-3.94129 1.696623,0.16146 -0.588696,6.18597 z"
           style="font-style:normal;font-variant:normal;font-weight:bold;font-stretch:normal;font-size:11.99444485px;font-family:sans-serif;-inkscape-font-specification:'sans-serif, Bold';font-variant-ligatures:normal;font-variant-caps:normal;font-variant-numeric:normal;font-feature-settings:normal;text-align:start;writing-mode:lr-tb;text-anchor:start;fill:#ffffff"
           id="path922" />
        <path
           d="m 48.503587,193.18522 q 0.230724,-0.67004 0.08069,-1.0438 -0.148129,-0.3793 -0.718498,-0.5757 -0.564831,-0.19449 -0.909545,0.0151 -0.342807,0.20405 -0.57353,0.8741 l -0.308903,0.89708 2.120885,0.73031 z m 1.164089,1.4043 3.128721,1.07735 -0.734121,2.13196 -8.267578,-2.84687 1.121203,-3.25608 q 0.562509,-1.63358 1.37196,-2.20345 0.811358,-0.57541 1.996396,-0.16736 0.819559,0.28221 1.208337,0.86206 0.390685,0.57432 0.365295,1.45753 0.250314,-0.40314 0.72294,-0.62444 0.468995,-0.22873 1.305376,-0.33716 l 2.746449,-0.34886 -0.781792,2.2704 -2.401474,0.30041 q -0.725081,0.091 -1.060809,0.32846 -0.333821,0.23193 -0.513061,0.75246 z"
           style="font-style:normal;font-variant:normal;font-weight:bold;font-stretch:normal;font-size:11.99444485px;font-family:sans-serif;-inkscape-font-specification:'sans-serif, Bold';font-variant-ligatures:normal;font-variant-caps:normal;font-variant-numeric:normal;font-feature-settings:normal;text-align:start;writing-mode:lr-tb;text-anchor:start;fill:#ffffff"
           id="path924" />
        <path
           d="m 50.818716,182.0767 q -0.502155,0.90019 -0.114003,1.76722 0.388153,0.86704 1.595218,1.54038 1.201951,0.67049 2.143616,0.54528 0.941665,-0.12521 1.443821,-1.0254 0.505009,-0.9053 0.116856,-1.77233 -0.388152,-0.86704 -1.590103,-1.53753 -1.207065,-0.67334 -2.148731,-0.54813 -0.941665,0.12521 -1.446674,1.03051 z m -1.426996,-0.79603 q 1.027136,-1.84128 2.662805,-2.29693 1.635669,-0.45564 3.492299,0.58005 1.851516,1.03284 2.323097,2.66399 0.47158,1.63115 -0.555556,3.47243 -1.024284,1.83617 -2.662806,2.29693 -1.635669,0.45565 -3.487184,-0.57719 -1.85663,-1.0357 -2.328211,-2.66685 -0.468728,-1.63626 0.555556,-3.47243 z"
           style="font-style:normal;font-variant:normal;font-weight:bold;font-stretch:normal;font-size:11.99444485px;font-family:sans-serif;-inkscape-font-specification:'sans-serif, Bold';font-variant-ligatures:normal;font-variant-caps:normal;font-variant-numeric:normal;font-feature-settings:normal;text-align:start;writing-mode:lr-tb;text-anchor:start;fill:#ffffff"
           id="path926" />
        <path
           d="m 57.650788,170.26861 1.439291,1.16343 q -0.70336,0.35773 -1.261653,0.78755 -0.558293,0.42981 -0.941192,0.9035 -0.508077,0.62855 -0.577991,1.06907 -0.06991,0.44051 0.294464,0.73505 0.273283,0.22091 0.590139,0.14568 0.315983,-0.0835 0.856057,-0.52801 l 0.754107,-0.62548 q 1.144483,-0.95004 1.995645,-1.05275 0.851161,-0.10271 1.707448,0.58946 1.125016,0.90938 1.134924,2.02441 0.009,1.1068 -1.099161,2.47777 -0.522804,0.64677 -1.172267,1.19868 -0.649462,0.55192 -1.417348,1.00812 l -1.480283,-1.19656 q 0.872644,-0.37152 1.539946,-0.83371 0.666429,-0.47042 1.122962,-1.03521 0.463897,-0.57389 0.519273,-1.03369 0.05538,-0.4598 -0.299891,-0.74697 -0.31883,-0.25772 -0.661268,-0.18811 -0.338757,0.0651 -0.976112,0.57405 l -0.698881,0.55715 q -1.043331,0.84354 -1.904475,0.93065 -0.857463,0.0825 -1.668202,-0.57279 -1.015703,-0.82103 -1.032102,-1.91871 -0.0164,-1.09769 0.977665,-2.32746 0.452851,-0.56023 1.018014,-1.08239 0.560608,-0.52584 1.240891,-1.02273 z"
           style="font-style:normal;font-variant:normal;font-weight:bold;font-stretch:normal;font-size:11.99444485px;font-family:sans-serif;-inkscape-font-specification:'sans-serif, Bold';font-variant-ligatures:normal;font-variant-caps:normal;font-variant-numeric:normal;font-feature-settings:normal;text-align:start;writing-mode:lr-tb;text-anchor:start;fill:#ffffff"
           id="path928" />
        <path
           d="m 68.866636,168.97701 -2.631739,2.34618 0.644763,1.55934 -1.691832,1.50826 -3.401168,-8.6821 2.006591,-1.78887 8.236224,4.37167 -1.691832,1.50826 z m -3.291616,0.76109 1.788008,-1.594 -3.206825,-1.80172 z"
           style="font-style:normal;font-variant:normal;font-weight:bold;font-stretch:normal;font-size:11.99444485px;font-family:sans-serif;-inkscape-font-specification:'sans-serif, Bold';font-variant-ligatures:normal;font-variant-caps:normal;font-variant-numeric:normal;font-feature-settings:normal;text-align:start;writing-mode:lr-tb;text-anchor:start;fill:#ffffff"
           id="path930" />
        <path
           d="m 73.161329,161.83099 q 0.60089,-0.37567 0.719413,-0.76058 0.12349,-0.38802 -0.196292,-0.89952 -0.316676,-0.50654 -0.716482,-0.56049 -0.394839,-0.0571 -0.99573,0.3186 l -0.804497,0.50296 1.18909,1.90199 z m 0.02135,1.82392 1.754141,2.80581 -1.911924,1.1953 -4.635278,-7.41429 2.920028,-1.82555 q 1.46498,-0.91587 2.452689,-0.84958 0.992676,0.0632 1.657076,1.12593 0.459492,0.73497 0.396881,1.43028 -0.05764,0.6922 -0.633043,1.36275 0.448201,-0.15588 0.954795,-0.0306 0.508454,0.11727 1.226783,0.55919 l 2.354283,1.45672 -2.036074,1.27292 -2.055652,-1.27735 q -0.620855,-0.38544 -1.031211,-0.41208 -0.40539,-0.0297 -0.872197,0.26209 z"
           style="font-style:normal;font-variant:normal;font-weight:bold;font-stretch:normal;font-size:11.99444485px;font-family:sans-serif;-inkscape-font-specification:'sans-serif, Bold';font-variant-ligatures:normal;font-variant-caps:normal;font-variant-numeric:normal;font-feature-settings:normal;text-align:start;writing-mode:lr-tb;text-anchor:start;fill:#ffffff"
           id="path932" />
        <path
           d="m 77.333679,155.07171 2.046864,-0.9458 3.667743,7.93757 -2.046864,0.9458 z"
           style="font-style:normal;font-variant:normal;font-weight:bold;font-stretch:normal;font-size:11.99444485px;font-family:sans-serif;-inkscape-font-specification:'sans-serif, Bold';font-variant-ligatures:normal;font-variant-caps:normal;font-variant-numeric:normal;font-feature-settings:normal;text-align:start;writing-mode:lr-tb;text-anchor:start;fill:#ffffff"
           id="path934" />
        <path
           d="m 86.728192,152.97135 q -0.985215,0.30306 -1.304353,1.1978 -0.319139,0.89474 0.08723,2.21583 0.40465,1.31548 1.171487,1.87617 0.766837,0.56069 1.752052,0.25763 0.990813,-0.30477 1.309951,-1.19952 0.319139,-0.89474 -0.08551,-2.21022 -0.406372,-1.32109 -1.173209,-1.88178 -0.766837,-0.56069 -1.75765,-0.25591 z m -0.480415,-1.56179 q 2.015213,-0.61989 3.511881,0.18199 1.496669,0.80188 2.121725,2.83389 0.623334,2.0264 -0.163905,3.53082 -0.787239,1.50442 -2.802451,2.12431 -2.009614,0.61817 -3.511881,-0.18198 -1.496668,-0.80188 -2.120002,-2.82829 -0.625056,-2.03201 0.162182,-3.53643 0.792837,-1.50614 2.802451,-2.12431 z"
           style="font-style:normal;font-variant:normal;font-weight:bold;font-stretch:normal;font-size:11.99444485px;font-family:sans-serif;-inkscape-font-specification:'sans-serif, Bold';font-variant-ligatures:normal;font-variant-caps:normal;font-variant-numeric:normal;font-feature-settings:normal;text-align:start;writing-mode:lr-tb;text-anchor:start;fill:#ffffff"
           id="path936" />
      </g>
      <path
         style="fill:#ffffff;stroke-width:0.26458335"
         d="m 84.511261,219.72466 c -1.23744,-0.73329 -12.00043,-8.73504 -12.58198,-9.35407 -0.61916,-0.65906 -0.62941,-0.75546 -0.62941,-5.91901 0,-5.07614 0.0196,-5.26986 0.59411,-5.88143 0.32676,-0.34782 2.14246,-1.38731 4.03489,-2.30997 1.89244,-0.92267 3.44079,-1.82884 3.44079,-2.01373 0,-0.18489 -0.34223,-0.41132 -0.76052,-0.5032 -1.27355,-0.27971 -1.95802,-1.25547 -2.09167,-2.98182 -0.0866,-1.11802 -0.28153,-1.6994 -0.73271,-2.18485 -2.30784,-2.48311 -0.97677,-6.78883 2.25864,-7.30619 0.90756,-0.14513 1.03248,-0.26043 1.18961,-1.098 0.32731,-1.74471 1.1658,-2.23844 5.49446,-3.23532 l 3.90261,-0.89877 v -1.09307 c 0,-1.29172 0.8211,-2.24365 1.93528,-2.24365 0.61012,0 0.71055,-0.1101 0.71055,-0.779 0,-1.22669 0.98594,-2.15843 2.45976,-2.32456 l 1.25168,-0.14108 -1.18745,-1.26948 c -2.65794,-2.84156 -5.07499,-7.49599 -5.74267,-11.05849 -0.42689,-2.27771 -0.14154,-5.5398 0.6318,-7.22271 0.35739,-0.77773 1.56981,-2.48562 2.69427,-3.7953 2.43098,-2.83142 3.72348,-5.31602 4.26678,-8.20209 0.43697,-2.32123 1.24907,-4.2016 2.58451,-5.9843 0.4777,-0.6377 1.364502,-2.00509 1.970649,-3.03865 1.39208,-2.37368 3.8357,-4.6855 5.36215,-5.07295 1.98939,-0.50496 2.20094,-0.17562 1.64932,2.56769 -0.35361,1.75858 -0.35172,2.18636 0.018,4.06285 0.22726,1.15353 0.84412,3.00748 1.37081,4.11989 1.09511,2.31298 4.12486,6.91623 6.46841,9.82776 1.69118,2.10106 3.47073,5.25124 3.96081,7.01146 1.62968,5.85334 0.0904,11.91204 -4.22624,16.63517 l -1.30126,1.42379 1.44796,0.12007 c 1.74967,0.1451 2.45607,0.70209 2.56633,2.02352 0.0728,0.87287 0.16123,0.97192 0.93395,1.04655 1.1172,0.1079 1.92462,1.12909 1.92462,2.43418 v 0.99003 l 2.57969,0.58355 c 4.93815,1.11705 5.47235,1.29259 6.08541,1.99963 0.36924,0.42584 0.59532,1.03263 0.59532,1.59785 0,0.79946 0.0825,0.91129 0.672,0.91129 1.06179,0 2.66203,0.95737 3.28496,1.9653 1.15076,1.86196 0.95437,3.86752 -0.53483,5.46171 -0.64264,0.68795 -0.7763,1.05699 -0.7763,2.14336 0,1.72664 -0.32778,2.26836 -1.7384,2.87302 -0.64461,0.27631 -1.17202,0.60415 -1.17202,0.72854 0,0.12438 1.61503,0.9828 3.58896,1.90761 2.02483,0.94865 3.81213,1.96518 4.10104,2.33248 0.46762,0.59448 0.51209,1.11046 0.51209,5.9419 v 5.29089 l -0.88389,0.82499 c -0.48614,0.45375 -3.49246,2.72999 -6.68073,5.05832 l -5.79684,4.23334 -19.57917,0.0595 c -15.065199,0.0458 -19.705249,-0.0152 -20.126099,-0.26458 z m 37.985469,-6.40954 v -5.15937 l -8.40052,2.6e-4 c -4.62028,2.2e-4 -12.77606,0.0791 -18.123939,0.17521 l -9.72344,0.17483 v 4.80777 c 0,2.64427 0.0794,4.88715 0.17639,4.98416 0.097,0.0971 8.25279,0.17652 18.123949,0.17652 h 17.94756 z m -38.213189,-5.07275 c -0.1141,-0.29735 -11.06914,-7.75954 -11.39157,-7.75954 -0.0753,0 -0.13689,1.99607 -0.13689,4.43571 v 4.4357 l 5.75469,4.31022 5.75468,4.31021 0.0725,-4.70213 c 0.0399,-2.58617 0.0159,-4.84974 -0.0534,-5.03017 z m 47.209029,4.60573 4.63021,-3.50173 0.0725,-4.43177 c 0.0399,-2.43747 -0.0186,-4.43177 -0.13008,-4.43177 -0.11145,0 -2.72853,1.69664 -5.81575,3.77031 l -5.61312,3.77032 -0.0115,4.97738 -0.0115,4.97737 1.12448,-0.81419 c 0.61846,-0.4478 3.20807,-2.38997 5.75468,-4.31592 z m -2.39835,-10.11692 c 3.21086,-2.11039 5.83793,-3.8956 5.83793,-3.96713 0,-0.0715 -1.49612,-0.84037 -3.32471,-1.70853 l -3.3247,-1.57849 -4.62862,3.03207 -4.62861,3.03207 -14.60241,-0.0105 -14.602399,-0.0105 -4.61092,-3.00178 -4.61092,-3.00178 -2.40054,1.117 c -1.32029,0.61435 -2.85552,1.35175 -3.41161,1.63867 l -1.01107,0.52166 5.90586,3.87207 5.90587,3.87208 18.834459,0.0151 18.83446,0.0151 5.83793,-3.83707 z m -28.02874,-2.9326 c 0,-0.0853 -0.38337,-0.56154 -0.85196,-1.05833 L 99.361551,197.837 h -4.72743 -4.72744 l -4.25462,-2.77363 c -3.36176,-2.19157 -4.33127,-2.71003 -4.61982,-2.47055 -0.80529,0.66833 -0.13281,1.30472 4.55326,4.30888 l 4.76063,3.05197 h 5.35968 c 2.94783,0 5.359669,-0.0698 5.359669,-0.15509 z m 22.50928,-2.9149 c 2.60854,-1.68849 4.74281,-3.21354 4.74281,-3.38901 0,-0.17547 -0.14883,-0.5155 -0.33073,-0.75562 -0.29567,-0.39031 -0.79351,-0.14336 -4.69636,2.32963 l -4.36562,2.76621 -4.10104,0.0234 -4.10104,0.0234 -0.89059,1.03594 -0.89058,1.03593 h 4.94517 4.94517 l 4.74281,-3.06998 z m -16.28062,2.30808 c 3.30089,-1.49939 4.01863,-6.01748 1.34687,-8.47849 -0.68614,-0.63201 -0.69636,-0.63316 -0.69636,-0.0779 0,0.30994 0.29766,1.00216 0.66146,1.53825 1.18245,1.74244 0.80008,4.36239 -0.82301,5.63911 -1.68473,1.32521 -4.0279,1.21265 -5.55433,-0.26682 -1.63036,-1.58022 -1.81571,-3.59178 -0.51244,-5.56117 0.36964,-0.55857 0.67207,-1.219 0.67207,-1.46762 0,-0.65069 -1.54151,0.84236 -2.01695,1.95356 -0.434237,1.01488 -0.474197,2.9243 -0.0829,3.96002 0.98166,2.59821 4.39898,3.94505 7.00556,2.76105 z m -1.29187,-1.88393 c 0.21757,0 0.74361,-0.34803 1.16898,-0.7734 0.62951,-0.6295 0.7734,-0.9987 0.7734,-1.98437 0,-0.66604 -0.0504,-1.21098 -0.11194,-1.21098 -0.0616,0 -0.46912,0.35719 -0.90569,0.79375 -1.08705,1.08706 -2.33772,1.08385 -3.58262,-0.009 -0.87824,-0.7711 -0.92135,-0.78136 -1.08726,-0.25864 -0.25525,0.80424 0.0793,1.97881 0.74044,2.59996 0.70377,0.66117 1.77587,1.11657 2.25673,0.95862 0.1938,-0.0637 0.53039,-0.11576 0.74796,-0.11576 z m -7.318029,-2.85847 c 0,-2.00786 0.978642,-4.03256 2.472009,-5.11436 0.59269,-0.42934 1.22471,-1.13047 1.4045,-1.55806 0.44654,-1.06199 1.85475,-1.90839 2.86079,-1.71947 0.80339,0.15087 2.25842,1.33685 2.25866,1.84101 7e-5,0.15467 0.60959,0.80609 1.35449,1.44758 1.68285,1.44925 2.60793,3.30887 2.61154,5.24979 l 0.003,1.38907 h 3.04271 3.04271 l 6e-5,-5.35782 6e-5,-5.35781 -13.36152,0.0709 -13.361509,0.0709 v 5.28688 5.28689 h 3.83646 3.83646 v -1.53556 z m -9.28447,-4.12286 c 0,-4.50738 -0.0547,-5.17548 -0.45099,-5.51056 -0.50399,-0.4261 -7.87915,-4.70603 -8.10942,-4.70603 -0.0807,0 -0.14678,0.2679 -0.14677,0.59532 0,0.36647 0.36648,0.88772 0.95336,1.35599 2.06841,1.65039 2.28088,4.64691 0.46451,6.55123 -0.45344,0.47539 -0.63755,0.92726 -0.57848,1.41977 0.0724,0.60393 0.67255,1.1041 3.65851,3.0492 1.96454,1.27972 3.7153,2.33746 3.89058,2.35054 0.23841,0.0178 0.3187,-1.26852 0.3187,-5.10546 z m 34.157839,2.66985 c 4.37529,-2.80667 4.54182,-3.05704 3.09712,-4.65615 -1.67106,-1.84966 -1.53249,-4.25824 0.34244,-5.95213 0.69601,-0.6288 1.05581,-1.17951 1.05581,-1.61601 0,-0.36418 -0.0756,-0.66215 -0.16799,-0.66215 -0.0924,0 -2.05692,1.08818 -4.36562,2.41817 l -4.19764,2.41817 v 5.25475 c 0,2.89011 0.0904,5.25475 0.20098,5.25475 0.11054,0 1.92624,-1.10673 4.0349,-2.4594 z m -17.34775,0.0193 c 0.28175,-0.40226 0.41187,-1.20018 0.41187,-2.52557 0,-1.70219 -0.0786,-2.01609 -0.64676,-2.5843 -0.68538,-0.68538 -1.3286,-0.65313 -1.93292,0.0969 -0.5201,0.64549 -0.4391,4.51354 0.10715,5.11714 0.59535,0.65785 1.56111,0.60902 2.06066,-0.10418 z m -26.443319,-4.54252 c 0,-3.14223 -0.064,-3.71567 -0.44085,-3.95341 -0.31991,-0.2018 -0.55579,-0.18268 -0.85989,0.0697 -0.34365,0.28521 -0.41906,0.97672 -0.41906,3.84317 0,1.92246 0.0848,3.58022 0.18854,3.68392 0.10369,0.10369 0.49065,0.1533 0.8599,0.11024 l 0.67136,-0.0783 z m 51.138089,0.0506 c 0.0692,-3.41021 0.0418,-3.64176 -0.46302,-3.91191 -0.38228,-0.20459 -0.68869,-0.20573 -1.06571,-0.004 -0.48543,0.2598 -0.52917,0.55399 -0.52917,3.55955 0,1.80198 0.0747,3.47108 0.16607,3.7091 0.11522,0.30026 0.41899,0.40814 0.99219,0.35237 l 0.82612,-0.0804 z m -2.64909,-4.76517 c 0.42236,-0.42236 0.90724,-0.59387 1.67894,-0.59387 1.54579,0 2.35184,0.97123 2.35184,2.83377 0,1.03701 0.0735,1.28758 0.30868,1.0524 0.16977,-0.16978 0.30868,-0.86668 0.30868,-1.54867 0,-1.08891 -0.11772,-1.34786 -0.96625,-2.12548 -1.69581,-1.55409 -3.9447,-1.01406 -4.85558,1.16598 -0.31424,0.75207 -0.32083,1.06752 -0.0392,1.87381 l 0.33868,0.9695 0.14015,-1.51679 c 0.10085,-1.09144 0.30669,-1.68332 0.73402,-2.11065 z m -50.747489,-0.0106 c 0.4464,-0.40019 1.10552,-0.72761 1.46474,-0.72761 1.11193,0 2.24709,1.26928 2.48456,2.77813 0.1959,1.24478 0.22077,1.2778 0.42097,0.55901 0.71598,-2.57066 -1.97388,-4.70372 -4.3694,-3.46495 -1.26195,0.65258 -1.9134,2.4099 -1.388,3.74419 0.13552,0.34415 0.2466,0.10113 0.38318,-0.83825 0.14547,-1.00058 0.39009,-1.50021 1.00395,-2.05052 z m 45.171389,-2.47985 c 2.24066,-1.25477 3.99984,-2.35609 3.90929,-2.44739 -0.0906,-0.0913 -1.83068,-0.53783 -3.86694,-0.99229 l -3.70231,-0.82629 -1.7671,0.74073 c -3.27166,1.37142 -5.81619,1.70661 -12.8796,1.69663 -6.967149,-0.01 -9.932159,-0.42079 -12.926299,-1.79155 l -1.43053,-0.65492 -3.88388,0.86885 c -2.13614,0.47786 -3.94481,0.92976 -4.01927,1.00422 -0.0745,0.0745 1.62936,1.14735 3.78626,2.3842 l 3.92164,2.24881 14.392399,0.0252 14.39242,0.0252 z m -11.73861,-3.40517 c 1.42962,-0.21549 3.57274,-0.72299 4.7625,-1.12778 1.97856,-0.67317 2.17064,-0.80079 2.25043,-1.49513 0.0743,-0.64701 0.0157,-0.72934 -0.39688,-0.5574 -1.1597,0.4833 -3.67826,1.21068 -5.70303,1.64708 -1.70748,0.36803 -3.35418,0.4686 -7.48107,0.45691 -5.619029,-0.0159 -8.466899,-0.42265 -11.782369,-1.68278 -0.79574,-0.30244 -1.48446,-0.54995 -1.53051,-0.55002 -0.0461,-7e-5 -0.0461,0.32729 0,0.72747 0.0757,0.65806 0.29572,0.79867 2.30178,1.47117 1.21993,0.40896 3.244,0.90344 4.49792,1.09885 3.128179,0.48749 9.884319,0.4935 13.081229,0.0116 z m 1.63301,-2.81562 c 1.83977,-0.4838 2.40153,-0.73965 2.47408,-1.12679 0.0776,-0.41411 -0.0139,-0.46899 -0.52814,-0.31688 -6.06294,1.79329 -14.776477,1.79791 -19.842479,0.0105 -0.94909,-0.33487 -1.02014,-0.32538 -1.02014,0.13623 0,0.58987 1.43724,1.12255 4.63021,1.71607 3.360179,0.62461 11.190979,0.39486 14.286469,-0.41916 z m -0.26356,-1.65584 c 2.41757,-0.5494 3.30729,-0.92928 3.30729,-1.41212 0,-0.29865 -0.17533,-0.34792 -0.72761,-0.2045 -6.532,1.69637 -13.63489,1.83179 -19.358309,0.36909 -1.07908,-0.27577 -2.01652,-0.44684 -2.0832,-0.38016 -0.59761,0.5976 1.30089,1.31644 5.23579,1.98244 2.256329,0.3819 11.436139,0.1429 13.626039,-0.35475 z m -11.2448,-3.34885 c 0,-0.46619 -0.80254,-1.90044 -1.848419,-3.30333 -2.98636,-4.00576 -3.05018,-6.4258 -0.33028,-12.52342 1.403379,-3.14616 1.491359,-3.46668 1.498519,-5.45907 0.007,-1.82893 -0.16184,-2.62501 -1.238879,-5.85611 -0.7632,-2.28957 -1.31608,-4.4882 -1.42598,-5.6706 -0.22421,-2.41247 -0.49563,-1.85845 -1.01066,2.06297 -0.43438,3.30741 -0.879,4.26417 -3.47785,7.48391 -2.55048,3.15981 -3.54303,5.16113 -3.54331,7.14452 -7.9e-4,5.24053 5.11693,14.22358 9.12792,16.0222 0.954242,0.42791 2.248939,0.48486 2.248939,0.0989 z m 9.68132,-1.20501 c 2.92727,-1.94302 5.5446,-5.59748 6.61259,-9.23289 0.66954,-2.27909 0.61934,-5.36975 -0.12431,-7.6542 -0.9949,-3.05626 -1.97039,-4.67343 -6.42881,-10.65775 -2.77168,-3.72028 -4.04742,-6.07041 -4.7175,-8.69042 -0.58561,-2.28971 -0.6543,-3.86326 -0.25951,-5.94497 0.14622,-0.77102 0.20754,-1.46016 0.13628,-1.53143 -0.31572,-0.31572 -3.13508,1.9217 -3.85805,3.06171 -0.99115,1.56288 -1.31308,2.63465 -1.49103,4.96401 -0.24209,3.16864 0.22367,4.48286 4.49908,12.69471 2.23293,4.28882 2.02347,6.13474 -1.07168,9.44439 -1.07771,1.1524 -2.18611,2.59447 -2.46311,3.20461 -1.02,2.2467 -0.48724,6.01739 1.1543,8.16959 0.95273,1.24912 2.78858,2.50063 4.02816,2.74603 0.7588,0.15021 0.8367,0.0842 1.41721,-1.20025 0.33786,-0.74756 1.27157,-2.21583 2.07491,-3.26282 1.90695,-2.48534 3.11263,-5.10077 3.67812,-7.97879 0.778,-3.95964 0.15563,-5.99586 -3.72312,-12.18109 -1.91416,-3.0524 -2.27487,-3.83646 -1.76501,-3.83646 0.37071,0 3.09614,3.04595 4.26334,4.76472 4.5792,6.74317 4.82629,11.43671 0.92141,17.50266 -0.68757,1.0681 -1.8748,2.7159 -2.63829,3.66179 -1.39928,1.73357 -2.14511,2.91041 -1.8445,2.91041 0.0896,0 0.80938,-0.4291 1.59952,-0.95356 z m -10.59709,-11.2995 c 0.3972,-0.8112 1.41906,-2.32992 2.27079,-3.37494 1.50824,-1.85049 2.08008,-3.09092 2.08309,-4.51862 0.003,-1.29911 -1.06396,-4.16135 -3.06466,-8.2233 -2.206189,-4.47918 -2.420129,-4.09914 -0.55478,0.98553 0.97147,2.64805 1.0695,3.14893 1.08755,5.55625 0.0193,2.57904 -0.009,2.70929 -1.1308,5.15937 -1.682909,3.67632 -2.156659,5.19179 -2.156659,6.89895 0,2.33877 0.35745,2.80762 0.56623,0.74272 0.10768,-1.06501 0.460002,-2.32891 0.899239,-3.22596 z m 15.19887,-0.95182 c 0.32407,-1.78714 0.21214,-2.82663 -0.55815,-5.18368 -0.47073,-1.44041 -1.51595,-3.66459 -1.54302,-3.28349 -0.006,0.0858 0.35949,1.21695 0.81243,2.51354 1.09281,3.12831 1.22084,5.00585 0.50358,7.38454 -0.83993,2.7855 -0.86558,3.04039 -0.15563,1.54659 0.35649,-0.75011 0.77985,-2.08998 0.94079,-2.9775 z M 60.689811,135.0646 c 0.0953,-0.61846 0.24139,-1.50397 0.32474,-1.96779 0.14787,-0.82293 0.10514,-0.86667 -1.76897,-1.81045 -2.20681,-1.11133 -2.13248,-1.31069 0.59066,-1.58416 0.99349,-0.0998 1.80724,-0.25862 1.80834,-0.35299 0.008,-0.68102 0.5965,-3.65023 0.75539,-3.81082 0.10864,-0.10981 0.60407,0.64069 1.10094,1.66778 0.75112,1.55263 0.994,1.84606 1.44077,1.74062 0.29555,-0.0697 1.25173,-0.20817 2.12486,-0.30759 l 1.5875,-0.18077 -1.38907,1.42625 c -0.76398,0.78444 -1.38906,1.57473 -1.38906,1.7562 0,0.18148 0.35167,1.02661 0.78149,1.87808 0.42982,0.85146 0.71223,1.61738 0.62757,1.70203 -0.0846,0.0847 -0.93577,-0.261 -1.89137,-0.76811 l -1.73746,-0.92203 -1.34583,1.32912 c -0.74021,0.73101 -1.4466,1.32911 -1.56976,1.32911 -0.12317,0 -0.146,-0.50601 -0.0507,-1.12448 z m 3.15542,-2.53789 c 0.6177,0.34705 0.83202,0.13273 0.48498,-0.48497 -0.2107,-0.37503 -0.14225,-0.62434 0.30648,-1.11629 l 0.57776,-0.63343 -0.82373,0.15656 c -0.70854,0.13466 -0.87106,0.0567 -1.16215,-0.5572 l -0.3384,-0.71376 -0.23449,0.8599 c -0.18987,0.69628 -0.37149,0.86253 -0.95452,0.87377 l -0.72004,0.0139 0.59531,0.41527 c 0.39664,0.27668 0.59531,0.68479 0.59531,1.22287 v 0.8076 l 0.59532,-0.55774 c 0.46113,-0.43204 0.70414,-0.4966 1.07817,-0.28645 z"
         id="path850" />
      <g
         aria-label="CONFINGERE HOMINEM COGITANTEM"
         style="font-style:normal;font-variant:normal;font-weight:bold;font-stretch:normal;font-size:7.05555534px;line-height:1.25;font-family:sans-serif;-inkscape-font-specification:'sans-serif, Bold';font-variant-ligatures:normal;font-variant-caps:normal;font-variant-numeric:normal;font-feature-settings:normal;text-align:start;letter-spacing:0px;word-spacing:0px;writing-mode:lr-tb;text-anchor:start;fill:#ffffff;fill-opacity:1;stroke:none;stroke-width:0.26458332"
         id="text862"
         transform="translate(0,-57.730218)">
        <path
           d="m 68.879322,181.60613 q -0.07357,0.40478 -0.239676,0.77717 -0.166111,0.3724 -0.4296,0.71302 -0.78625,1.01641 -1.812566,1.172 -1.029041,0.15349 -2.001851,-0.59903 -0.975535,-0.75464 -1.082802,-1.78712 -0.109992,-1.0346 0.676259,-2.05101 0.263489,-0.34062 0.582197,-0.59496 0.318709,-0.25435 0.69202,-0.42726 l 0.842012,0.65134 q -0.424468,0.13769 -0.73634,0.34942 -0.311871,0.21173 -0.554281,0.5251 -0.434229,0.56134 -0.323268,1.16113 0.110961,0.59979 0.743151,1.08882 0.629466,0.48693 1.237894,0.44363 0.608428,-0.0433 1.042657,-0.60464 0.24241,-0.31337 0.368984,-0.66844 0.126574,-0.35506 0.153198,-0.80051 z"
           style="font-style:normal;font-variant:normal;font-weight:bold;font-stretch:normal;font-size:7.05555534px;font-family:sans-serif;-inkscape-font-specification:'sans-serif, Bold';font-variant-ligatures:normal;font-variant-caps:normal;font-variant-numeric:normal;font-feature-settings:normal;text-align:start;writing-mode:lr-tb;text-anchor:start;stroke-width:0.26458332;fill:#ffffff"
           id="path939" />
        <path
           d="m 68.412752,176.2662 q -0.424787,0.43266 -0.33932,0.98488 0.08547,0.55223 0.665633,1.12183 0.577708,0.56718 1.131406,0.64249 0.553699,0.0753 0.978486,-0.35736 0.427201,-0.43513 0.341734,-0.98735 -0.08547,-0.55222 -0.663175,-1.11941 -0.580166,-0.5696 -1.133864,-0.6449 -0.553699,-0.0753 -0.9809,0.35982 z m -0.685874,-0.67339 q 0.868883,-0.885 1.867666,-0.8893 0.998783,-0.004 1.891157,0.87182 0.889916,0.87371 0.903965,1.8724 0.01405,0.99869 -0.854834,1.88369 -0.86647,0.88254 -1.867667,0.88931 -0.998783,0.004 -1.888699,-0.86941 -0.892374,-0.87612 -0.906423,-1.87482 -0.01163,-1.00115 0.854835,-1.88369 z"
           style="font-style:normal;font-variant:normal;font-weight:bold;font-stretch:normal;font-size:7.05555534px;font-family:sans-serif;-inkscape-font-specification:'sans-serif, Bold';font-variant-ligatures:normal;font-variant-caps:normal;font-variant-numeric:normal;font-feature-settings:normal;text-align:start;writing-mode:lr-tb;text-anchor:start;stroke-width:0.26458332;fill:#ffffff"
           id="path941" />
        <path
           d="m 70.89904,172.67499 1.163722,-0.91666 3.652474,1.61373 -2.182938,-2.77128 0.98781,-0.7781 3.182741,4.04055 -1.163722,0.91666 -3.652474,-1.61372 2.182937,2.77128 -0.98781,0.77809 z"
           style="font-style:normal;font-variant:normal;font-weight:bold;font-stretch:normal;font-size:7.05555534px;font-family:sans-serif;-inkscape-font-specification:'sans-serif, Bold';font-variant-ligatures:normal;font-variant-caps:normal;font-variant-numeric:normal;font-feature-settings:normal;text-align:start;writing-mode:lr-tb;text-anchor:start;stroke-width:0.26458332;fill:#ffffff"
           id="path943" />
        <path
           d="m 76.090322,168.76448 3.048518,-1.8759 0.525399,0.85382 -1.918895,1.18079 0.501927,0.81568 1.804465,-1.11038 0.525399,0.85382 -1.804465,1.11038 1.142877,1.85727 -1.129624,0.69512 z"
           style="font-style:normal;font-variant:normal;font-weight:bold;font-stretch:normal;font-size:7.05555534px;font-family:sans-serif;-inkscape-font-specification:'sans-serif, Bold';font-variant-ligatures:normal;font-variant-caps:normal;font-variant-numeric:normal;font-feature-settings:normal;text-align:start;writing-mode:lr-tb;text-anchor:start;stroke-width:0.26458332;fill:#ffffff"
           id="path945" />
        <path
           d="m 80.604234,166.11916 1.181774,-0.6022 2.335289,4.58282 -1.181773,0.60221 z"
           style="font-style:normal;font-variant:normal;font-weight:bold;font-stretch:normal;font-size:7.05555534px;font-family:sans-serif;-inkscape-font-specification:'sans-serif, Bold';font-variant-ligatures:normal;font-variant-caps:normal;font-variant-numeric:normal;font-feature-settings:normal;text-align:start;writing-mode:lr-tb;text-anchor:start;stroke-width:0.26458332;fill:#ffffff"
           id="path947" />
        <path
           d="m 83.370556,164.71637 1.376137,-0.54842 3.043784,2.58458 -1.306012,-3.27712 1.168116,-0.46553 1.904176,4.77808 -1.376137,0.54842 -3.043784,-2.58458 1.306012,3.27712 -1.168116,0.46553 z"
           style="font-style:normal;font-variant:normal;font-weight:bold;font-stretch:normal;font-size:7.05555534px;font-family:sans-serif;-inkscape-font-specification:'sans-serif, Bold';font-variant-ligatures:normal;font-variant-caps:normal;font-variant-numeric:normal;font-feature-settings:normal;text-align:start;writing-mode:lr-tb;text-anchor:start;stroke-width:0.26458332;fill:#ffffff"
           id="path949" />
        <path
           d="m 95.174272,165.85918 q -0.41991,0.35769 -0.906699,0.60813 -0.48679,0.25044 -1.037124,0.39277 -1.244088,0.32175 -2.150616,-0.18396 -0.907391,-0.50904 -1.215338,-1.69977 -0.311397,-1.20406 0.250495,-2.08598 0.561892,-0.88191 1.849339,-1.21487 0.496969,-0.12853 0.97473,-0.15245 0.481097,-0.0248 0.932118,0.0543 l 0.266542,1.03063 q -0.478164,-0.12899 -0.921939,-0.13877 -0.44044,-0.0106 -0.854024,0.0963 -0.767132,0.1984 -1.072777,0.73648 -0.303172,0.53389 -0.09701,1.33104 0.204435,0.79048 0.715953,1.11723 0.511518,0.32675 1.248632,0.13611 0.200121,-0.0517 0.364186,-0.11909 0.166538,-0.0715 0.289486,-0.16027 l -0.250153,-0.96726 -0.783809,0.20271 -0.22255,-0.86052 2.001215,-0.51756 z"
           style="font-style:normal;font-variant:normal;font-weight:bold;font-stretch:normal;font-size:7.05555534px;font-family:sans-serif;-inkscape-font-specification:'sans-serif, Bold';font-variant-ligatures:normal;font-variant-caps:normal;font-variant-numeric:normal;font-feature-settings:normal;text-align:start;writing-mode:lr-tb;text-anchor:start;stroke-width:0.26458332;fill:#ffffff"
           id="path951" />
        <path
           d="m 95.715871,160.9415 3.545154,-0.49435 0.138454,0.99292 -2.231502,0.31116 0.13227,0.94856 2.09843,-0.29261 0.138455,0.99292 -2.098431,0.29261 0.16272,1.16693 2.306568,-0.32163 0.138451,0.99291 -3.620217,0.50481 z"
           style="font-style:normal;font-variant:normal;font-weight:bold;font-stretch:normal;font-size:7.05555534px;font-family:sans-serif;-inkscape-font-specification:'sans-serif, Bold';font-variant-ligatures:normal;font-variant-caps:normal;font-variant-numeric:normal;font-feature-settings:normal;text-align:start;writing-mode:lr-tb;text-anchor:start;stroke-width:0.26458332;fill:#ffffff"
           id="path953" />
        <path
           d="m 103.01424,162.51027 q 0.4167,-0.0115 0.5915,-0.17142 0.17824,-0.16001 0.16845,-0.51472 -0.01,-0.35127 -0.19641,-0.49775 -0.18326,-0.14659 -0.59996,-0.13508 l -0.55789,0.0154 0.0364,1.31897 z m -0.5326,0.93145 0.0537,1.94574 -1.32586,0.0366 -0.14196,-5.14156 2.02494,-0.0559 q 1.01592,-0.0281 1.49713,0.29986 0.48465,0.32781 0.505,1.06478 0.0141,0.50968 -0.22484,0.84369 -0.23548,0.33391 -0.7271,0.50257 0.27377,0.0545 0.49337,0.26899 0.22294,0.21096 0.45561,0.64913 l 0.76007,1.44029 -1.41195,0.039 -0.66205,-1.26034 q -0.20005,-0.38047 -0.40025,-0.51624 -0.19675,-0.13587 -0.52046,-0.12694 z"
           style="font-style:normal;font-variant:normal;font-weight:bold;font-stretch:normal;font-size:7.05555534px;font-family:sans-serif;-inkscape-font-specification:'sans-serif, Bold';font-variant-ligatures:normal;font-variant-caps:normal;font-variant-numeric:normal;font-feature-settings:normal;text-align:start;writing-mode:lr-tb;text-anchor:start;stroke-width:0.26458332;fill:#ffffff"
           id="path955" />
        <path
           d="m 107.07345,160.23758 3.5669,0.29945 -0.0839,0.99901 -2.2452,-0.18849 -0.0801,0.95438 2.11131,0.17725 -0.0839,0.999 -2.11131,-0.17724 -0.0986,1.17409 2.32072,0.19483 -0.0839,0.99901 -3.64243,-0.30579 z"
           style="font-style:normal;font-variant:normal;font-weight:bold;font-stretch:normal;font-size:7.05555534px;font-family:sans-serif;-inkscape-font-specification:'sans-serif, Bold';font-variant-ligatures:normal;font-variant-caps:normal;font-variant-numeric:normal;font-feature-settings:normal;text-align:start;writing-mode:lr-tb;text-anchor:start;stroke-width:0.26458332;fill:#ffffff"
           id="path957" />
        <path
           d="m 115.16067,161.26593 1.2837,0.33372 -0.49322,1.8972 1.89386,0.49235 0.49322,-1.89719 1.28369,0.33372 -1.29416,4.97805 -1.28369,-0.33372 0.5487,-2.11059 -1.89387,-0.49235 -0.54869,2.11059 -1.28369,-0.33372 z"
           style="font-style:normal;font-variant:normal;font-weight:bold;font-stretch:normal;font-size:7.05555534px;font-family:sans-serif;-inkscape-font-specification:'sans-serif, Bold';font-variant-ligatures:normal;font-variant-caps:normal;font-variant-numeric:normal;font-feature-settings:normal;text-align:start;writing-mode:lr-tb;text-anchor:start;stroke-width:0.26458332;fill:#ffffff"
           id="path959" />
        <path
           d="m 123.34432,164.72634 q -0.56215,-0.22723 -1.03981,0.0628 -0.47766,0.28999 -0.78236,1.04378 -0.30341,0.75059 -0.16143,1.29105 0.14198,0.54046 0.70413,0.76769 0.56534,0.22852 1.043,-0.0615 0.47767,-0.28998 0.78107,-1.04058 0.3047,-0.75379 0.16272,-1.29425 -0.14198,-0.54045 -0.70732,-0.76898 z m 0.36021,-0.89113 q 1.14985,0.46479 1.53547,1.38614 0.38561,0.92135 -0.0831,2.08078 -0.46738,1.15624 -1.38492,1.55083 -0.91754,0.39458 -2.06739,-0.0702 -1.14666,-0.4635 -1.53547,-1.38614 -0.38561,-0.92135 0.0818,-2.07759 0.46866,-1.15943 1.38621,-1.55401 0.92074,-0.3933 2.06739,0.0702 z"
           style="font-style:normal;font-variant:normal;font-weight:bold;font-stretch:normal;font-size:7.05555534px;font-family:sans-serif;-inkscape-font-specification:'sans-serif, Bold';font-variant-ligatures:normal;font-variant-caps:normal;font-variant-numeric:normal;font-feature-settings:normal;text-align:start;writing-mode:lr-tb;text-anchor:start;stroke-width:0.26458332;fill:#ffffff"
           id="path961" />
        <path
           d="m 127.68543,165.66148 1.46107,0.84554 -0.36494,2.96914 2.39852,-1.79228 1.45809,0.84381 -2.57631,4.4518 -1.08537,-0.62812 1.88435,-3.2561 -2.41484,1.80673 -0.72755,-0.42105 0.36337,-2.99393 -1.88435,3.2561 -1.08835,-0.62984 z"
           style="font-style:normal;font-variant:normal;font-weight:bold;font-stretch:normal;font-size:7.05555534px;font-family:sans-serif;-inkscape-font-specification:'sans-serif, Bold';font-variant-ligatures:normal;font-variant-caps:normal;font-variant-numeric:normal;font-feature-settings:normal;text-align:start;writing-mode:lr-tb;text-anchor:start;stroke-width:0.26458332;fill:#ffffff"
           id="path963" />
        <path
           d="m 134.1092,169.61783 1.07419,0.77806 -3.01725,4.16559 -1.07418,-0.77806 z"
           style="font-style:normal;font-variant:normal;font-weight:bold;font-stretch:normal;font-size:7.05555534px;font-family:sans-serif;-inkscape-font-specification:'sans-serif, Bold';font-variant-ligatures:normal;font-variant-caps:normal;font-variant-numeric:normal;font-feature-settings:normal;text-align:start;writing-mode:lr-tb;text-anchor:start;stroke-width:0.26458332;fill:#ffffff"
           id="path965" />
        <path
           d="m 136.60961,171.43507 1.11678,0.97331 -0.90758,3.88857 2.31783,-2.65949 0.94796,0.82618 -3.37941,3.87756 -1.11678,-0.97331 0.90758,-3.88857 -2.31783,2.65948 -0.94797,-0.82618 z"
           style="font-style:normal;font-variant:normal;font-weight:bold;font-stretch:normal;font-size:7.05555534px;font-family:sans-serif;-inkscape-font-specification:'sans-serif, Bold';font-variant-ligatures:normal;font-variant-caps:normal;font-variant-numeric:normal;font-feature-settings:normal;text-align:start;writing-mode:lr-tb;text-anchor:start;stroke-width:0.26458332;fill:#ffffff"
           id="path967" />
        <path
           d="m 141.41136,175.80277 2.41354,2.64335 -0.74035,0.67598 -1.5192,-1.66387 -0.70727,0.64578 1.42861,1.56464 -0.74034,0.67598 -1.42861,-1.56464 -0.8701,0.79444 1.57031,1.71984 -0.74034,0.67597 -2.46464,-2.69932 z"
           style="font-style:normal;font-variant:normal;font-weight:bold;font-stretch:normal;font-size:7.05555534px;font-family:sans-serif;-inkscape-font-specification:'sans-serif, Bold';font-variant-ligatures:normal;font-variant-caps:normal;font-variant-numeric:normal;font-feature-settings:normal;text-align:start;writing-mode:lr-tb;text-anchor:start;stroke-width:0.26458332;fill:#ffffff"
           id="path969" />
        <path
           d="m 145.06127,179.88001 0.97283,1.37958 -1.57454,2.54359 2.92857,-0.62343 0.97085,1.37678 -4.20352,2.96417 -0.72268,-1.02484 3.07451,-2.16803 -2.94943,0.6297 -0.48443,-0.68698 1.58349,-2.56676 -3.07451,2.16804 -0.72466,-1.02765 z"
           style="font-style:normal;font-variant:normal;font-weight:bold;font-stretch:normal;font-size:7.05555534px;font-family:sans-serif;-inkscape-font-specification:'sans-serif, Bold';font-variant-ligatures:normal;font-variant-caps:normal;font-variant-numeric:normal;font-feature-settings:normal;text-align:start;writing-mode:lr-tb;text-anchor:start;stroke-width:0.26458332;fill:#ffffff"
           id="path971" />
        <path
           d="m 147.93688,194.40309 q -0.32548,-0.25163 -0.57961,-0.57052 -0.25413,-0.31888 -0.43523,-0.70959 -0.54041,-1.16586 -0.20611,-2.1486 0.33742,-0.98419 1.45328,-1.50141 1.11898,-0.51867 2.08495,-0.13863 0.9691,0.37859 1.5095,1.54446 0.1811,0.3907 0.2602,0.79072 0.0791,0.40001 0.0607,0.81102 l -0.96582,0.44767 q 0.0731,-0.4402 0.0288,-0.81453 -0.0444,-0.37432 -0.21102,-0.73377 -0.29845,-0.64389 -0.882,-0.82147 -0.58354,-0.17759 -1.30869,0.15853 -0.72202,0.33468 -0.96365,0.89474 -0.24163,0.56007 0.0568,1.20395 0.16662,0.35945 0.42356,0.63526 0.25695,0.27581 0.64014,0.50449 z"
           style="font-style:normal;font-variant:normal;font-weight:bold;font-stretch:normal;font-size:7.05555534px;font-family:sans-serif;-inkscape-font-specification:'sans-serif, Bold';font-variant-ligatures:normal;font-variant-caps:normal;font-variant-numeric:normal;font-feature-settings:normal;text-align:start;writing-mode:lr-tb;text-anchor:start;stroke-width:0.26458332;fill:#ffffff"
           id="path973" />
        <path
           d="m 152.89203,196.43982 q -0.18948,-0.57597 -0.71934,-0.75345 -0.52987,-0.17748 -1.30219,0.0766 -0.76905,0.253 -1.09006,0.7104 -0.321,0.45739 -0.13152,1.03336 0.19056,0.57924 0.72042,0.75673 0.52986,0.17748 1.29891,-0.0755 0.77232,-0.25407 1.09333,-0.71147 0.321,-0.45739 0.13045,-1.03664 z m 0.91304,-0.30036 q 0.38757,1.17812 -0.0669,2.0675 -0.45453,0.88938 -1.64246,1.28018 -1.18467,0.38972 -2.07844,-0.0561 -0.89377,-0.44583 -1.28134,-1.62395 -0.3865,-1.17485 0.0669,-2.0675 0.45452,-0.88938 1.63919,-1.2791 1.18794,-0.39081 2.08171,0.055 0.89485,0.4491 1.28134,1.62395 z"
           style="font-style:normal;font-variant:normal;font-weight:bold;font-stretch:normal;font-size:7.05555534px;font-family:sans-serif;-inkscape-font-specification:'sans-serif, Bold';font-variant-ligatures:normal;font-variant-caps:normal;font-variant-numeric:normal;font-feature-settings:normal;text-align:start;writing-mode:lr-tb;text-anchor:start;stroke-width:0.26458332;fill:#ffffff"
           id="path975" />
        <path
           d="m 151.16599,205.73047 q -0.33321,-0.43959 -0.55553,-0.93985 -0.22233,-0.50025 -0.3331,-1.0578 -0.25041,-1.26038 0.30608,-2.13665 0.55987,-0.87695 1.76619,-1.11662 1.21984,-0.24235 2.06834,0.36883 0.8485,0.61118 1.10764,1.9155 0.10003,0.50348 0.0967,0.98183 -0.003,0.48172 -0.10726,0.92751 l -1.04412,0.20745 q 0.15599,-0.47005 0.19101,-0.91255 0.0357,-0.43912 -0.0476,-0.85812 -0.15441,-0.77718 -0.67423,-1.11296 -0.51576,-0.33307 -1.32335,-0.17262 -0.80084,0.1591 -1.15618,0.65119 -0.35533,0.49209 -0.20697,1.23886 0.0403,0.20275 0.0982,0.37038 0.0619,0.17034 0.14353,0.29814 l 0.97992,-0.19469 -0.15776,-0.79408 0.87179,-0.1732 0.40281,2.02743 z"
           style="font-style:normal;font-variant:normal;font-weight:bold;font-stretch:normal;font-size:7.05555534px;font-family:sans-serif;-inkscape-font-specification:'sans-serif, Bold';font-variant-ligatures:normal;font-variant-caps:normal;font-variant-numeric:normal;font-feature-settings:normal;text-align:start;writing-mode:lr-tb;text-anchor:start;stroke-width:0.26458332;fill:#ffffff"
           id="path977" />
        <path
           d="m 156.00841,206.4099 0.14497,1.31842 -5.11271,0.56219 -0.14497,-1.31842 z"
           style="font-style:normal;font-variant:normal;font-weight:bold;font-stretch:normal;font-size:7.05555534px;font-family:sans-serif;-inkscape-font-specification:'sans-serif, Bold';font-variant-ligatures:normal;font-variant-caps:normal;font-variant-numeric:normal;font-feature-settings:normal;text-align:start;writing-mode:lr-tb;text-anchor:start;stroke-width:0.26458332;fill:#ffffff"
           id="path979" />
        <path
           d="m 156.282,208.77289 0.18299,4.73692 -1.00178,0.0387 -0.0658,-1.70405 -4.13791,0.15984 -0.0512,-1.32537 4.13791,-0.15985 -0.066,-1.70749 z"
           style="font-style:normal;font-variant:normal;font-weight:bold;font-stretch:normal;font-size:7.05555534px;font-family:sans-serif;-inkscape-font-specification:'sans-serif, Bold';font-variant-ligatures:normal;font-variant-caps:normal;font-variant-numeric:normal;font-feature-settings:normal;text-align:start;writing-mode:lr-tb;text-anchor:start;stroke-width:0.26458332;fill:#ffffff"
           id="path981" />
        <path
           d="m 152.03852,217.02288 0.12796,-2.07 -0.91508,-0.38447 0.0823,-1.33072 5.01618,2.21887 -0.0976,1.57829 -5.25128,1.58415 0.0823,-1.33072 z m 1.06003,-1.68102 -0.0869,1.40636 2.08585,-0.57519 z"
           style="font-style:normal;font-variant:normal;font-weight:bold;font-stretch:normal;font-size:7.05555534px;font-family:sans-serif;-inkscape-font-specification:'sans-serif, Bold';font-variant-ligatures:normal;font-variant-caps:normal;font-variant-numeric:normal;font-feature-settings:normal;text-align:start;writing-mode:lr-tb;text-anchor:start;stroke-width:0.26458332;fill:#ffffff"
           id="path983" />
        <path
           d="m 155.95665,220.2179 -0.2647,1.45755 -3.80527,1.21022 3.471,0.63036 -0.22469,1.23722 -5.06075,-0.91907 0.26471,-1.45755 3.80526,-1.21022 -3.471,-0.63036 0.22469,-1.23722 z"
           style="font-style:normal;font-variant:normal;font-weight:bold;font-stretch:normal;font-size:7.05555534px;font-family:sans-serif;-inkscape-font-specification:'sans-serif, Bold';font-variant-ligatures:normal;font-variant-caps:normal;font-variant-numeric:normal;font-feature-settings:normal;text-align:start;writing-mode:lr-tb;text-anchor:start;stroke-width:0.26458332;fill:#ffffff"
           id="path985" />
        <path
           d="m 154.84254,225.98113 -1.36242,4.54045 -0.96023,-0.28813 0.49011,-1.63337 -3.96629,-1.19014 0.3812,-1.2704 3.9663,1.19013 0.4911,-1.63667 z"
           style="font-style:normal;font-variant:normal;font-weight:bold;font-stretch:normal;font-size:7.05555534px;font-family:sans-serif;-inkscape-font-specification:'sans-serif, Bold';font-variant-ligatures:normal;font-variant-caps:normal;font-variant-numeric:normal;font-feature-settings:normal;text-align:start;writing-mode:lr-tb;text-anchor:start;stroke-width:0.26458332;fill:#ffffff"
           id="path987" />
        <path
           d="m 153.04642,231.64906 -1.36886,3.30738 -0.92632,-0.38339 0.86163,-2.08183 -0.88494,-0.36626 -0.81025,1.95768 -0.92632,-0.38338 0.81025,-1.95769 -1.08866,-0.45058 -0.89062,2.15186 -0.92631,-0.38338 1.39784,-3.37741 z"
           style="font-style:normal;font-variant:normal;font-weight:bold;font-stretch:normal;font-size:7.05555534px;font-family:sans-serif;-inkscape-font-specification:'sans-serif, Bold';font-variant-ligatures:normal;font-variant-caps:normal;font-variant-numeric:normal;font-feature-settings:normal;text-align:start;writing-mode:lr-tb;text-anchor:start;stroke-width:0.26458332;fill:#ffffff"
           id="path989" />
        <path
           d="m 150.90945,236.67512 -0.83313,1.46818 -2.97213,-0.33977 1.81255,2.38325 -0.83143,1.46518 -4.47347,-2.53849 0.6189,-1.09066 3.27195,1.8567 -1.82713,-2.39944 0.41487,-0.7311 2.99691,0.33799 -3.27196,-1.85669 0.6206,-1.09365 z"
           style="font-style:normal;font-variant:normal;font-weight:bold;font-stretch:normal;font-size:7.05555534px;font-family:sans-serif;-inkscape-font-specification:'sans-serif, Bold';font-variant-ligatures:normal;font-variant-caps:normal;font-variant-numeric:normal;font-feature-settings:normal;text-align:start;writing-mode:lr-tb;text-anchor:start;stroke-width:0.26458332;fill:#ffffff"
           id="path991" />
      </g>
    </g>
  </g>
</svg>
